<?xml version="1.0" encoding="utf-8"?>
<!-- Generator: Adobe Illustrator 20.1.0, SVG Export Plug-In . SVG Version: 6.00 Build 0)  -->
<svg version="1.1" id="Layer_1" xmlns="http://www.w3.org/2000/svg" xmlns:xlink="http://www.w3.org/1999/xlink" x="0px" y="0px"
	 viewBox="0 0 1192.1 424.8" style="enable-background:new 0 0 1192.1 424.8;" xml:space="preserve">
<style type="text/css">
	.st0{fill:#323130;}
</style>
<g id="XMLID_32_">
	<g id="XMLID_384_">
		<path id="XMLID_83_" class="st0" d="M482.5,196c-14.6-5.4-30.9-6.5-46.3-3c15.2-8.1,33.8-10.3,50.3-5.4c0.3,4.9,3,9.7,7,12.5
			c6-6.8,0.3-18.4-8.1-21.7c-8.4-3.2-17.9-1.1-26.8,0.3s-19.2,1.1-25.7-5.1c7-1.4,14.3-2.4,21.4-3.8c-2.7-2.4-4.6-5.7-5.4-9.2
			c3.8-0.5,7.6-1.4,11.4-1.9c-17.9-7.9-37.6-11.4-56.8-14.3c-68.5-10-137.8-12.7-206.8-7.9c2.2,0.8,4.1,1.6,6,3c0.3,0,0.5,0,0.8,0
			c2.7,0,4.6,1.1,6,2.4c1.1-0.5,2.4-0.5,3.5-0.8c9.5-1.1,19.8-2.2,28.7,1.9c8.9,3.8,15.4,14.6,11.6,23.3c-7.3-3.5-12.7-11.1-13-19.2
			c-6-1.1-7,8.7-3.5,13.5c3.8,4.6,9.7,8.9,9.2,14.9c-11.1-7-21.4-15.2-30.9-24.1c-2.7,8.9,1.9,18.7,9.2,24.4c7,6,16.2,8.7,25.2,11.4
			l-26.5,1.4c12.7,8.7,30.3,8.7,43,0.3c-2.4-1.9-4.3-4.3-5.7-7c4.1-4.1,11.1,3,9.5,8.4s-7.6,8.4-13,10.6c-5.4,2.2-11.1,4.9-13,10.6
			c11.9-4.9,25.2-6.8,37.9-5.1c-2.2-3.8,2.7-8.9,6.5-7c0.5,7.6,0.8,15.4,1.4,23c-2.2-4.1-4.6-7.9-6.8-11.9
			c-11.6,0-23.3,4.9-31.1,13.3c8.4-1.6,17.1-3.2,25.4-4.6c-9.7,5.1-17.6,14.3-20.6,25.2c8.4-5.7,16.8-11.4,25.2-16.8
			c-8.1,10.8-13.3,24.1-14.6,37.4c5.7-6,11.6-11.9,17.3-17.6c0.8,3,1.9,5.7,2.7,8.7c3.2-2.7,6.8-5.4,10-8.1
			c-0.3,6.8-0.3,13.5-0.5,20.3c4.3-8.4,12.5-14.6,21.7-16.5l-8.1,14.9c25.2,9.7,53.9,9.2,78.5-1.4l-3.2-6
			c-8.1,4.1-16.8,6.5-25.7,7.3c-1.4,0-3,0.3-4.1-0.5c-3.5-1.9-1.1-7.9,2.7-9.2c3.8-1.4,7.9,0,11.9-0.5c11.1-0.8,18.1-13.3,29-16
			l-47.9,2.7c-20,1.1-43.9,0.5-55.2-16c11.6-1.9,23,10.3,33.8,6c8.7-3.8,10-15.4,9.7-24.9c-0.3-10.6-0.3-21.4-0.5-31.9
			c34.4-0.8,68.8,10,96.9,29.8c4.6,3.2,1.4,10.6-3,14.1c-4.3,3.5-10,7.3-9.2,12.7c13.5,3.2,27.3,4.6,41.4,4.1
			c4.6-0.3,10-1.4,11.4-5.4c2.4-7.9-11.9-16.2-6.2-22.2c3,4.3,7.6,8.4,13,8.9c5.4,0.5,11.4-3,11.9-8.4
			C495.3,202.8,488.5,198.2,482.5,196z M224,169.5c-1.6,0-3-1.4-4.1-2.4c0-2.2,3.5-1.6,5.4-0.5v-0.3
			C226.7,166.8,225.6,169.5,224,169.5z M266.8,146.8l0.3,0.5c-2.4,1.9-6.2,2.2-8.9,0.5c-0.8-2.2,1.1-4.6,3.2-5.4
			c2.2-0.8,4.6-0.3,7,0.3C269.5,144.1,268.4,146.5,266.8,146.8z M371,245.3L371,245.3c0.3,1.9-3.2,3-4.6,1.4
			C366.4,244.5,369.9,243.4,371,245.3z M325.8,255.6c3.8-1.1,7.6,0.3,11.4,0.8c3.8,0.5,8.1,0.3,10.8-2.4c1.4,0.3,0,2.2-1.1,3
			c-4.3,2.4-6.5,8.4-4.6,13.3c-7-1.9-14.3-3.8-21.4-5.7C319,260.7,322.3,256.4,325.8,255.6z M300.6,208.5h-0.5
			c-2.2-1.9-4.3-3.8-5.1-6.5c-0.8-2.7,0.5-6.2,3.2-6.8c2.7-0.5,5.1,2.4,5.1,5.4C303.3,203.6,302.3,206,300.6,208.5z M373.2,163.5
			c-1.9,0.5-3.5-0.5-5.1-1.6c1.9-0.8,3.5-1.6,5.4-2.7l0.3,0.3C375.3,159.8,374.8,163,373.2,163.5z M404.8,161.6
			c-23-7.9-47.6-9.7-72-11.6l-18.9-1.6c-9.2-0.8-18.4,0.5-27.1,4.1c-3.5,1.4-7.3,3-10.8,1.6c6.5-11.4,21.9-16.2,33.8-11.1
			c2.4,1.1,5.4,2.7,7.9,1.1c3.2-2.2,7.3-1.9,11.1-1.4c23.6,2.4,47.4,5.4,70.9,8.7c3.2,0.5,6.8,1.1,8.7,3.8
			C410.3,157.9,407.8,162.7,404.8,161.6z M415.9,152.4l12.5,4.3c2.4,0.8,5.4,1.9,6.8,4.3s0,6.2-2.7,6.2
			C426,163.8,420.3,158.7,415.9,152.4z M448.2,225c-0.3-1.4-0.5-2.7-0.8-3.8h0.5c1.4-4.3,8.1-5.4,10.8-1.9
			C458.4,223.9,452.8,225.8,448.2,225z M455.2,202.5l0.5-0.3c3.8-1.9,8.7-1.1,11.6,1.9C463.6,206,458.2,205.5,455.2,202.5z"/>
		<path id="XMLID_753_" class="st0" d="M455.2,248.8c1.4,2.2-2.7,4.6-4.1,2.4c-1.1-1.6,1.9-2.7,3.8-2.2L455.2,248.8z"/>
		<path id="XMLID_738_" class="st0" d="M843.1,158.1c18.7-4.1,39-0.3,55,10.3c4.6,3,10.6,0.3,16-1.4c5.4-1.6,13.3,0.8,12.5,6.2
			c-6-4.3-16,0.5-16.5,7.9c11.1,3.8,23.3,4.1,34.4,0c-5.4,3.2-10.6,6.8-16,10c1.9,4.1,7.3,4.6,11.6,6c4.3,1.6,7.9,7.9,4.1,10
			c-3.8,3.8-10.3,4.3-14.9,1.6c-1.1,5.7-2.2,11.6-6,16.2c-3.5,4.6-10.6,6.8-15.4,3.5c6.8-6.8,14.1-16,10.3-24.6
			c-1.9-4.1-6-6.8-10-8.9c-24.6-13.3-53.6-16-81.8-18.4c-3.2-0.3-6.8-0.5-9.7,1.1c-3,1.6-4.9,5.7-2.7,8.4c7.9,10.6,10.8,25.2,7,37.9
			c-2.2,7.3-6.5,14.6-13.5,17.6c-4.6,1.9-9.5,1.6-14.3,1.4c-21.1-0.8-42.2-1.6-63.3-2.4c-2.4,0-5.1-0.3-7-1.6
			c-4.6-3.2-2.7-10.3-0.5-15.4c6-14.1,12.2-28.4,21.9-40.3c9.7-11.9,24.1-20.8,39.5-20.6c4.1,0,8.1,0.8,11.9-0.5
			c3.8-1.1,7.3-4.9,6.2-8.7c-38.7-3.2-77.1,27.1-82.8,65.5c-1.1,7.9-11.1,12.2-18.4,9.2c-7.3-2.7-11.6-10.8-12.5-18.7
			c-0.5-5.4-1.1-13.3-6.8-13.5c-1.4-11.9,12.2-22.5,23.3-18.7c10.3,3.5,21.4-1.1,30.3-7.3c8.9-6.2,16.5-14.1,26-19.2
			c10.8-5.7,23.6-7,36-7.9c18.4-1.4,36.8-1.6,55.2-1.1C846.4,144.6,842.8,151.4,843.1,158.1 M815,154.9c3.2-2.7,8.1-1.6,12.2-1.4
			c4.3,0.3,9.7-1.6,9.5-6c-8.1-1.6-16.5-1.1-24.1,1.6C812,151.4,813.1,153.8,815,154.9 M760,183.3c6.5-1.4,12.7-4.6,18.1-8.7
			C771.4,170.3,760.8,175.5,760,183.3 M803.9,190.1c-2.4-1.1-5.4,1.1-5.4,3.8c4.6,3.5,11.4,3.5,16,0.3
			C811.7,191.2,807.6,189.5,803.9,190.1 M784.1,192.2c-4.1-2.7-9.5-3.2-14.1-1.4c-1.4,0.5-3,2.2-2.2,3.2
			C773,197.1,780,196.3,784.1,192.2 M797.4,184.4c3,0.3,5.4-2.7,5.1-5.4c-5.7-0.5-11.4,2.2-14.3,6.8c2.7,1.6,6.5,1.4,8.9-0.8
			 M704,186c0.3,1.6,1.4,3.2,2.7,4.1c2.4-1.9,2.2-6.2-0.5-7.9C705.6,183.3,704.8,184.7,704,186 M812.8,214.4
			c-1.9-0.5-3.5,2.4-2.2,4.1c1.4,1.6,4.1,1.1,5.1-0.5c-1.1-1.1-2.2-2.2-3.2-3.2 M749.4,196.3c1.9,0.3,4.6-0.5,3.8-2.2
			C752.2,192,748.1,194.4,749.4,196.3 M698.6,197.9c-1.1,1.4-1.1,3.5,0,4.9c1.4-1.4,2.7-2.7,4.1-4.1
			C701.5,197.9,699.9,197.6,698.6,197.9 M875.3,171.1c1.6,0.3,1.9-2.4,0.5-3.2c-1.4-0.8-3-0.3-4.6,0.3c1.4,0.8,2.7,1.6,4.1,2.4
			V171.1z"/>
		<path id="XMLID_700_" class="st0" d="M859.6,267.2c-5.7,0-13.5-0.8-13.5-6.5c1.6-0.8,3.8-1.1,5.7-0.5c1.6-3,0.3-7-2.7-8.4
			c3-2.4,6.8-3.5,10.6-2.7c0.8,1.1,1.1,2.7,0.8,4.1c11.6-1.9,22.7-4.9,33.8-8.9c23.3-8.4,51.2-2.7,69.3,14.3
			c-3.2,2.7-7.9,0.5-11.4-1.6c-5.4-3.2-10.8-6.5-17.1-7.9c-6.2-1.4-13-0.5-17.9,3.8c-2.2,1.9-3.5,4.3-5.7,6
			c-2.2,1.6-5.4,2.7-7.6,1.1c-0.5,3.2-0.3,6.8,0.5,10.3c-4.6-3.5-10.3-6-16-7c-2.7,1.4-0.3,5.1,2.2,6.8c2.4,1.6,4.9,5.4,2.4,6.8
			C882.9,270.2,871.3,267.2,859.6,267.2z"/>
		<path id="XMLID_698_" class="st0" d="M858.3,142.2c25.2-8.1,54.1-4.1,76.3,10.6c5.4,3.5,10.6,7.9,15.7,12.2
			c4.9,4.1,9.7,8.1,12.5,13.8c-6.8-0.3-12.2-5.4-17.3-9.7C921.3,148.9,889.1,138.9,858.3,142.2z"/>
		<path id="XMLID_675_" class="st0" d="M913.8,76.9c3-0.5,7.6,0.5,7,3.8c-2.7,2.7-8.1-0.3-7.3-3.8H913.8z"/>
		<path id="XMLID_672_" class="st0" d="M1064.3,235.8c-4.6-20.3-8.1-40.9-10.3-61.4c-0.5-4.3-1.1-9.2-4.6-12.2
			c4.3-1.1,8.7,1.6,11.1,5.1c2.4,3.8,3.2,8.1,3.8,12.5C1067.8,198.2,1070,217.7,1064.3,235.8z"/>
		<path id="XMLID_668_" class="st0" d="M933.2,229.6c7.6,3.8,16.8,1.6,24.9,0c8.4-1.6,18.1-2.4,24.4,3.2c-8.1,0.5-16.2,1.4-24.6,1.9
			c-8.9,0.8-18.4,1.4-27.1-0.8c-3.5-0.8-7.6-3.2-7-7c9.5-10.3,24.9-14.3,38.2-10.3c3.2,1.1,6.5,2.4,9.7,4.1
			c-6.8,2.7-14.1,0.3-21.1-0.5C943.5,219.8,934.6,222.6,933.2,229.6z"/>
		<path id="XMLID_667_" class="st0" d="M700.4,94.2c1.1,3.2,0.3,7-2.2,9.7c-2.4-2.7-1.4-7.9,2.2-9.2V94.2z"/>
		<path id="XMLID_645_" class="st0" d="M805.2,276.2c-4.3,2.4-10.3,1.1-13-3c4.1-1.4,8.9-0.5,12.2,1.9L805.2,276.2z"/>
		<path id="XMLID_643_" class="st0" d="M676.4,243.7c-0.3-4.1,6-6.8,8.7-3.5c-1.4,3-4.9,4.9-8.1,4.1L676.4,243.7z"/>
		<path id="XMLID_641_" class="st0" d="M397.3,275.1c-2.2,3-7,3.8-10,1.6c0.5-2.2,2.2-4.1,4.1-5.4c1.6,1.1,3.2,2.2,4.9,3.2
			L397.3,275.1z"/>
		<path id="XMLID_638_" class="st0" d="M437.1,253.4c3-1.4,7.9-1.1,7.9,2.2c-10.8,4.6-21.4,9.2-32.2,13.8
			C419.7,262.6,427.9,257.2,437.1,253.4z"/>
		<path id="XMLID_64_" class="st0" d="M254.9,24.1c-2.7,0-5.4-0.3-8.1-0.8c-14.3,7.3-27.3,17.1-38.2,29.2c0.3-3,0.8-6,1.4-8.9
			c-1.9,1.1-3,1.6-1.6,0.5l0,0c-2.4,1.9-4.6,4.1-7,6c-0.5,0.3-0.8,0.5-1.4,1.1c1.9,4.9,3,10,3.2,15.7c0.3,8.9-2.7,18.1-8.1,25.7
			c0.8,1.6,1.1,3.2,1.1,5.1c1.4,1.4,2.2,3.2,2.2,5.4c0,0.3,0,0.8,0,1.1c3.5-1.1,6.5-3,6.5-6.5c-0.5-20.3,10.6-39.5,25.2-53.3
			c8.4-8.1,18.1-14.6,28.2-20.3C257,24.1,256,24.1,254.9,24.1z"/>
		<path id="XMLID_94_" class="st0" d="M1116,154.9L1116,154.9c-8.9-9.7-29.8-19.2-42.8-20c-0.3,0-0.8,0-1.1-0.3
			c2.2,1.6,4.3,3,6.5,4.1c-104.5-36-217.9-30.9-328.4-24.9c25.7-8.4,51.2-16.8,76.9-25.4c9.2-3,18.4-6,27.9-8.1
			c15.2-3.2,30.9-3.5,46-6.5c3.8-0.8,8.4-4.3,6-7.3c11.1,3.8,23,5.1,34.9,4.1c0-0.5-0.3-1.1-0.3-1.9c-0.3-8.4,2.2-17.6,6.5-24.9
			c1.4-2.4,3-4.6,4.6-6.8c-3.5,0.5-7,0.8-10.6,0.8c-10.3,0-21.1-0.5-28.7-8.4c-0.5-0.5-1.1-1.1-1.4-1.9c-1.4,0.3-2.4,0.5-3.8,1.1
			c-15.7,3.8-31.9,6.5-48.2,8.1c2.4,1.6,5.1,3.2,8.1,4.3c-9.7-0.3-19.2-0.5-29-0.8c-0.3,4.3,4.1,8.1,8.4,7.9
			c-17.3,3-34.6,6.2-51.7,9.2c-4.1,0.8-9.5,0.3-9.7-3.8c-19.8,10.6-39.8,20-60.4,28.7c8.7-6.2,17.1-12.7,25.4-19.2
			c-27.1,0.3-50.6,27.6-46.6,54.1c14.9-1.4,29.2-6,42.2-13.3c-9.5,11.4-23.3,18.9-38.2,20.3c29.8-2.4,59.6-4.6,89.3-7
			c-77.4,14.3-154.8,29-232.5,43.3c0.8-7.9-9.7-10.6-17.3-11.1c-19.2-1.6-37.9-7.9-56.3-14.1c-18.7-6.2-37.4-12.7-56-18.9l41.1,6
			c8.9,1.4,19.5,1.9,24.9-5.1c6.5-8.4,0.8-20.8-6.8-28.2C482.5,76.4,465.5,69.1,449,62c-18.7-7.9-37.6-15.7-57.7-18.9
			c-28.7-4.6-57.4-9.2-86.1-13.5c0.8,5.1,5.7,9.2,11.1,9.2c-6.5,4.9-17.1,1.4-19.5-6.2c1.9-2.7,3.5-5.1,5.4-7.9
			c-13.5-1.4-27.3-0.5-40.3,3c2.2,1.9,4.3,3.5,6.5,5.4c-3,2.2-6.2,4.3-9.2,6.8c10-3.5,21.1-3,30.9,1.4l154.8,67.1
			c-25.2-7.3-50.3-14.3-75.5-21.7c-3.5,3.8-4.9,9.5-3.2,14.6c-40.3-7-81.5-8.1-122.1-2.4c63.3,2.4,126.1,10.6,188.1,23.8
			c-15.2,4.3-31.4,1.4-47.1-1.4c-94.7-16.2-192.7-14.6-286.9,5.1c-5.7,1.1-11.6,2.7-16,6.2c-8.7,7.3-8.4,20.8-7.3,32.2
			c2.2,22.7,4.3,45.2,6.5,67.9c-1.6-4.3-3-8.7-4.3-13c0,1.6,0.3,3.2,0.3,4.9c1.1,2.4,1.9,5.1,2.4,7.9c1.6,9.5,4.1,18.4,7.3,27.3
			c-0.3-1.1,4.6,10,5.1,11.1c1.9,4.1,4.1,7.9,6.2,11.6c3,5.7,6.2,11.4,9.2,17.1c-5.7-12.5-10-25.7-13-39.3c2.4,1.6,3.5,4.6,4.3,7
			c6.5,17.3,13,34.9,19.2,52.2c-0.8-1.4-1.4-2.4-2.2-3.8c0.8,1.4,1.4,3,2.2,4.3c2.2,4.9,4.3,9.7,6.2,14.6c0,0.3,0.3,0.5,0.3,0.8
			c1.1,1.9,2.2,4.1,2.4,4.6c1.6,3,3.2,6,4.9,8.9c2.4,4.1,5.1,7.9,7.6,11.9c0.3,0.5,0.5,0.8,0.5,1.1c0.3,0.3,0.5,0.5,1.1,1.1
			c2.4,2.4,7,6,8.7,8.7l0,0c0.8,0.5,1.6,1.4,2.7,1.9c0.5,0.3,0.8,0.5,1.4,0.5c0.3,0,0.5,0.3,0.8,0.3c10-0.5,19.5,1.4,27.6,5.7
			c-0.3-1.4-0.5-3-0.8-4.3c70.1,11.6,141.3,15.4,212.2,10.8c36.5-2.2,76.3-8.4,101-35.2c14.9-16.2,22.2-37.6,29.2-58.5
			c7-20.8,14.6-42.2,30-57.9c15.4-15.7,40.6-23.8,59.8-13c16.5,9.2,23.3,29,29,47.1c12.5,40.3,27.3,84.5,63.6,106.4
			c17.3,10.6,37.9,14.3,58.2,17.3c75.8,11.1,153.2,10.6,228.5-1.9c19.8-3.2,40.3-7.9,55-21.1c28.7-26,25.2-75,53.3-101.2
			c-1.6,6.5-3.5,13-5.1,19.5c3.5-10.6,6.8-21.1,9.5-31.7c3.2-12.5,6.2-25.2,8.9-37.9c3-18.7,4.3-37.6,3.8-56.8
			C1117.3,160.3,1117.1,157.3,1116,154.9z M760,101.8L760,101.8c1.4-1.1,3-1.9,4.3-2.4c1.9,4.1-4.6,8.4-7.6,5.1
			C757,102.9,758.4,101.8,760,101.8z M719.9,108.9c-2.4,0.5-4.3-2.2-4.9-4.6c-1.4-6.8,1.9-14.3,7.9-17.9
			C722.9,94,721.8,101.6,719.9,108.9z M494.2,110.8l0.3-0.3c1.1,1.4,1.6,3,1.6,4.9c-3.5,0.3-7-2.4-7.3-5.7
			C490.7,108.6,493.1,109.1,494.2,110.8z M461.4,78.8c1.9,0.5,4.1,1.1,5.1,2.7c1.1,1.6,0.8,4.3-1.1,4.9c-0.8,0.3-1.9,0-2.7-0.5
			c-4.3-1.9-7.9-5.4-10-9.5L461.4,78.8z M335.6,49.6L335.6,49.6c-1.6-0.5-3-1.4-4.3-2.2c-0.3-1.4,0-2.7,0.8-4.1
			c4.1,2.4,8.1,4.6,12.2,7C341.5,52,338,51.5,335.6,49.6z M87.6,248.3L87.6,248.3c-0.3-1.4-0.5-2.7-0.8-4.1c1.4,0.5,3,1.1,3.5,2.7
			C90.8,248.5,88.1,249.6,87.6,248.3z M518.8,210.4c-3.2,29-9.5,57.7-18.7,85.5c-8.7,26.5-21.1,53.9-45.2,68.5
			c-16.2,9.7-35.5,12.2-54.1,13.8c-69.3,5.7-139.1,1.1-206.8-14.1c-9.7-2.2-19.8-4.6-28.2-9.7c-16.5-10-25.7-28.7-32.5-46.8
			c-17.1-46-24.1-95.8-20.8-144.6c1.1-17.1,21.7-24.4,38.4-27.1c109.1-17.9,222-11.4,328.1,18.4c13.5,3.8,28.4,8.9,35.7,21.1
			C520.7,185.5,520.2,198.5,518.8,210.4z M574.3,212.3c-0.5-1.4,1.4-2.4,2.7-2.7c6.5-1.4,13.3-0.8,19.2,1.9
			C588.9,212.5,581.6,212.8,574.3,212.3z M620.3,210.6c-1.4,0.3-2.7,0-4.1-0.8c0.3-1.9,0.3-3.8,0.5-5.7h1.1
			c-0.5-2.7,2.7-5.1,5.1-4.1C623,203.9,622.2,207.4,620.3,210.6z M985.5,124.8L985.5,124.8c1.6-0.5,3,2.2,1.6,3
			c-1.1,0-2.7-0.3-3.2-1.1C983.1,125.4,984.7,123.7,985.5,124.8z M1076.4,200.4c-1.1,53.1-13.8,105.8-37.1,153.5
			c-6.2,12.5-21.1,17.6-34.9,20.6c-87.4,20-179.7,18.9-266.4-3.2c-11.9-3-24.4-6.8-33.6-14.9c-8.1-7-13.3-17.1-17.9-26.8
			c-17.3-37.4-28.2-78-31.9-119.1c-1.1-12.5-1.4-26,5.7-36.5c7.6-11.4,21.7-16,34.9-19.5c116.7-31.1,240.9-31.9,358.1-2.7
			C1071.8,156.8,1076.7,180.9,1076.4,200.4z M1103.8,210.6c-3.2,2.2-9.2,0-8.7-3.8c1.4-1.6,3-3.2,4.3-4.9l0.3,0.3
			c2.4-2.4,6.5-3.2,9.5-1.9C1108.4,204.1,1107,208.5,1103.8,210.6z"/>
		<path id="XMLID_445_" class="st0" d="M819.6,250.2c3.8-0.8,6.5,4.9,4.6,8.1c-1.9,3.5-6.2,4.9-10,5.4c-8.4,1.1-16.8,0-24.6-3.2
			c3.8-7.6,16.8,0.3,23.6-4.9C815.2,253.7,816.6,250.7,819.6,250.2z"/>
		<path id="XMLID_436_" class="st0" d="M724.3,159.5c-2.2,1.9-1.4,6-3.5,7.9c-1.1,1.1-2.7,1.1-4.3,1.1c-5.4,0.3-10.8,0.5-16,0.8
			c3-9.5,15.2-11.9,24.9-12.5c2.2,0,4.3-0.3,6,1.1c1.6,1.1,2.4,4.1,0.5,5.1C729.4,161.6,727,160.6,724.3,159.5z"/>
		<path id="XMLID_423_" class="st0" d="M805.5,46.6c1.6-1.1,2.7,1.9,2.2,3.5c-3.5,2.7-8.7,3.5-12.7,1.9
			C796.3,48.2,801.1,45.8,805.5,46.6L805.5,46.6z"/>
		<path id="XMLID_421_" class="st0" d="M763.8,258.3c7.6,1.4,15.2,4.1,21.7,7.9c1.9,1.1,3.2,2.7,4.1,4.9
			C779.5,272.1,769.2,266.9,763.8,258.3z"/>
		<path id="XMLID_414_" class="st0" d="M835.3,262.6c-1.1,3.8-2.2,7.9-5.7,10c-3.2,2.2-8.9,0-8.7-3.8c3.8-2.4,6.8-6,8.4-10
			c1.6-0.3,3.2-0.5,4.6,0C835.5,259.4,836.3,261.3,835.3,262.6z"/>
		<path id="XMLID_406_" class="st0" d="M351.3,91.8c-1.1,0.3-2.4,0.8-3.8,0.3c-0.5-0.3-1.1-0.8-1.6-1.4c4.1-7.9,16-10,22.5-3.8
			C362.9,88.6,356.9,90.2,351.3,91.8z"/>
		<path id="XMLID_399_" class="st0" d="M960.6,201.2c2.2-1.1,4.6-2.2,7-1.4c1.4,0.5,2.4,1.6,2.7,3.2c-5.4,5.4-14.1,7.3-21.4,4.3
			C952.7,205.2,956.5,203.3,960.6,201.2z"/>
	</g>
	<path id="XMLID_35_" class="st0" d="M908.6,29.3c0,0,54.1-7,67.7,0c13.5,7,65,62,62.5,69.8c-2.4,7.9-31.9-48.2-51.4-41.4
		C967.9,64.5,940.8,71,940.8,71L908.6,29.3z"/>
</g>
</svg>
