<?xml version="1.0" encoding="utf-8"?>
<!-- Generator: Adobe Illustrator 19.0.0, SVG Export Plug-In . SVG Version: 6.00 Build 0)  -->
<svg version="1.1" id="Layer_1" xmlns="http://www.w3.org/2000/svg" xmlns:xlink="http://www.w3.org/1999/xlink" x="0px" y="0px"
	 viewBox="0 0 411.4 406" style="enable-background:new 0 0 411.4 406;" xml:space="preserve">
<style type="text/css">
	.st0{fill:#323130;}
	.st1{fill:#EF5C5C;}
</style>
<g id="XMLID_1_">
	<g id="XMLID_40_">
		<g id="XMLID_9686_">
			<path id="XMLID_9709_" class="st0" d="M72.1,99.5h28c22.8,0,35.5,11.1,35.5,30.8c0,14.4-6.4,22.9-20,27.1
				c16.4,4.7,22.9,13.1,22.9,29.1c0,21.5-13.5,34.4-36.1,34.4H72.1V99.5z M97.6,149.1c11.5,0,18.9-6.7,18.9-17.1
				c0-4.6-1.6-8.6-4.6-11.3c-3.1-2.7-6.9-3.8-14-3.8h-7.1v32.2H97.6z M100.3,203.7c12,0,18.8-6.2,18.8-17.1
				c0-12.2-8.4-20.2-21.5-20.2h-6.7v37.3H100.3z"/>
			<path id="XMLID_9707_" class="st0" d="M197.5,116.8h-36.2v32.1H188v17.3h-26.8v37.5h36.2V221h-55V99.5h55V116.8z"/>
			<path id="XMLID_9705_" class="st0" d="M248.3,133.4c-2.9-12-8.4-18-16-18c-6.9,0-12.2,5.3-12.2,12.4c0,4.2,1.8,8.7,5.1,12.2
				c3.1,3.5,3.1,3.5,16,13.3c10.2,8,14,11.5,18,16.4c4.9,6,7.8,14,7.8,22.2c0,18.4-13.5,31-33.3,31c-20.8,0-33-11.1-36.8-34.2
				l18-5.3c2.4,14.6,8.7,21.9,18.8,21.9c8.2,0,13.8-5.6,13.8-13.8c0-7.6-3.8-12.6-18-23.7c-16.9-13.3-17.7-14-22.2-19.8
				c-4.4-5.6-6.7-12.7-6.7-20.2c0-17.5,13.1-29.9,31.7-29.9c17.3,0,29,10.4,34.1,30.4L248.3,133.4z"/>
			<path id="XMLID_9702_" class="st0" d="M290,194.6l-4.9,26.4h-18.4L290,99.5h25.7L340.3,221H321l-5.1-26.4H290z M302.8,122.9
				l-9.8,54.5h19.9L302.8,122.9z"/>
			<path id="XMLID_9699_" class="st0" d="M76.9,244.4h15.4c12.4,0,18.2,6.3,18.2,19.7v23.5c0,13.4-5.8,19.7-18.2,19.7H76.9V244.4z
				 M91.5,298.4c6.9,0,9.3-3.6,9.3-13.4v-18.2c0-9.9-2.5-13.4-9.3-13.4h-4.8v45H91.5z"/>
			<path id="XMLID_9697_" class="st0" d="M147.9,253.4h-18.8V270H143v9h-13.9v19.4h18.8v9h-28.5v-62.9h28.5V253.4z"/>
			<path id="XMLID_9695_" class="st0" d="M179.5,262c-1.5-6.2-4.3-9.3-8.3-9.3c-3.6,0-6.3,2.7-6.3,6.4c0,2.2,0.9,4.5,2.6,6.3
				c1.6,1.8,1.6,1.8,8.3,6.9c5.3,4.2,7.3,5.9,9.3,8.5c2.5,3.1,4.1,7.3,4.1,11.5c0,9.5-7,16-17.3,16c-10.8,0-17.1-5.8-19.1-17.7
				l9.3-2.7c1.2,7.5,4.5,11.3,9.7,11.3c4.2,0,7.2-2.9,7.2-7.2c0-4-2-6.5-9.3-12.3c-8.8-6.9-9.1-7.3-11.5-10.3
				c-2.3-2.9-3.5-6.6-3.5-10.5c0-9.1,6.8-15.5,16.4-15.5c9,0,15,5.4,17.6,15.8L179.5,262z"/>
			<path id="XMLID_9693_" class="st1" d="M205.7,307.3H196v-62.9h9.7V307.3z"/>
			<path id="XMLID_9691_" class="st0" d="M249,276.1v31.2h-5l-1.8-5.4c-3.2,4.5-6.7,6.3-11.8,6.3c-5.8,0-10.6-2.7-13-7.4
				c-2.1-4.1-2.7-8.1-2.7-16.8v-17.4c0-10,0.8-13.6,3.7-17.5c2.7-3.8,7.5-5.8,13.3-5.8c6.9,0,12,2.9,14.8,8.4c1.6,3.1,2.3,7,2.3,13
				H239c0-8.7-2.2-12.3-7.4-12.3c-2.5,0-4.7,1.1-5.8,3.2c-1.1,2.1-1.4,4-1.4,9.1v19.2c0,5.2,0.3,7.9,1,10.3c1,2.9,3.5,4.7,6.6,4.7
				c5.1,0,7.3-3.7,7.3-12.5v-2.5h-8v-8H249z"/>
			<path id="XMLID_9689_" class="st0" d="M292.5,307.3h-8.7l-17-41.9v41.9h-9.2v-62.9h9.8l15.8,39.1v-39.1h9.2V307.3z"/>
			<path id="XMLID_9687_" class="st0" d="M325.7,262c-1.5-6.2-4.3-9.3-8.3-9.3c-3.6,0-6.3,2.7-6.3,6.4c0,2.2,0.9,4.5,2.6,6.3
				c1.6,1.8,1.6,1.8,8.3,6.9c5.3,4.2,7.3,5.9,9.3,8.5c2.5,3.1,4.1,7.3,4.1,11.5c0,9.5-7,16-17.3,16c-10.8,0-17.1-5.8-19.1-17.7
				l9.3-2.7c1.2,7.5,4.5,11.3,9.7,11.3c4.2,0,7.2-2.9,7.2-7.2c0-4-2-6.5-9.3-12.3c-8.8-6.9-9.1-7.3-11.5-10.3
				c-2.3-2.9-3.5-6.6-3.5-10.5c0-9.1,6.8-15.5,16.4-15.5c9,0,15,5.4,17.6,15.8L325.7,262z"/>
		</g>
		<path id="XMLID_41_" class="st0" d="M205.7,400.1c-108.6,0-197-88.4-197-197c0-108.6,88.4-197,197-197c108.6,0,197,88.4,197,197
			C402.7,311.7,314.3,400.1,205.7,400.1z M205.7,18.8C104,18.8,21.4,101.5,21.4,203.1c0,101.6,82.7,184.3,184.3,184.3
			c101.6,0,184.3-82.7,184.3-184.3C390,101.5,307.3,18.8,205.7,18.8z"/>
	</g>
	<g id="XMLID_2_">
		<line id="XMLID_3_" class="st0" x1="72.2" y1="233" x2="340.2" y2="233"/>
		<rect id="XMLID_4_" x="72.2" y="230" class="st0" width="268" height="6"/>
	</g>
</g>
</svg>
