<?xml version="1.0" encoding="utf-8"?>
<!-- Generator: Adobe Illustrator 20.1.0, SVG Export Plug-In . SVG Version: 6.00 Build 0)  -->
<svg version="1.1" id="Layer_1" xmlns="http://www.w3.org/2000/svg" xmlns:xlink="http://www.w3.org/1999/xlink" x="0px" y="0px"
	 viewBox="0 0 1188 800" style="enable-background:new 0 0 1188 800;" xml:space="preserve">
<style type="text/css">
	.st0{opacity:0.3;fill:#245C97;enable-background:new    ;}
	.st1{fill:none;stroke:#FFFFFF;stroke-miterlimit:10;}
	.st2{fill:#FFFFFF;}
	.st3{fill:#FFFFFF;stroke:#FFFFFF;stroke-miterlimit:10;}
</style>
<rect x="-17" y="-17.4" class="st0" width="1229.5" height="820.5"/>
<g id="XMLID_2_">
	<g id="XMLID_7_">
		<path id="XMLID_5_" class="st1" d="M484.5,513.3c0,0-87-99.3-91.4-186.4c0,0-13.1,66.2-20.3,61c0,0-27.6-80.1-21.8-116.7
			c0,0-24.7,189.9-34.8,189.9c-10.2,0-11.6-62.7-11.6-83.6c0,0-30.5,149.8-37.7,144.6L484.5,513.3z"/>
		<path id="XMLID_4_" class="st2" d="M372.8,387.9c0,0-27.6-80.1-21.8-116.7c0,0-34.8,191-34.8,189.9S380,393.1,372.8,387.9z"/>
		<path id="XMLID_12_" class="st3" d="M484.9,512.8c-2.6-3.4-5.1-6.8-7.6-10.3s-5-6.9-7.4-10.5c-4.9-7-9.7-14.2-14.3-21.4
			c-2.3-3.6-4.6-7.3-6.9-10.9c-2.3-3.7-4.5-7.4-6.6-11.1c-2.2-3.7-4.3-7.5-6.4-11.3c-2.1-3.8-4.2-7.6-6.1-11.5
			c-2-3.8-3.9-7.8-5.8-11.7c-1.8-4-3.7-7.9-5.4-11.9c-1.8-4-3.4-8-5-12.1c-1.5-4.1-3.1-8.2-4.5-12.4c-0.7-2.1-1.4-4.2-2-6.3
			c-0.6-2.1-1.3-4.2-1.9-6.3l-1.7-6.4c-0.5-2.1-1-4.3-1.5-6.4s-0.9-4.3-1.2-6.4c-0.4-2.2-0.8-4.3-1-6.5c-0.2-2.2-0.6-4.3-0.8-6.5
			l-0.5-6.5l-2.7-37.2l-7.6,36.3l-1.7,8.1l-1.8,8.1c-1.2,5.4-2.5,10.8-3.8,16.1c-1.3,5.3-2.7,10.6-4.4,15.6
			c-0.6,1.8-1.2,3.6-1.9,5.2l-2.2-6.5c-1.5-4.6-3.1-9.3-4.5-14c-2.9-9.3-5.6-18.8-8-28.3c-2.4-9.5-4.4-19.2-5.9-29
			c-0.3-2.4-0.7-4.9-0.9-7.3c-0.3-2.4-0.4-4.9-0.5-7.3l-0.1-3.7v-3.7l0.2-3.6l0.4-3.6v-0.1l-3.8-0.8v0.1l0,0l0,0l-0.5,3.8l-0.1,1.2
			c-0.5,4.1-1.1,8.3-1.6,12.4l-2.3,17.4c-1.7,11.6-3.3,23.2-5.2,34.8l-2.8,17.3c-0.9,5.8-2,11.5-3,17.3c-2,11.5-4.2,23-6.6,34.4
			c-2.4,11.4-4.8,22.8-7.8,33.7c-0.8,2.7-1.5,5.4-2.4,8c-0.3,0.9-0.6,1.8-1,2.6l0,0c-0.8-2.1-1.4-4.7-1.9-7.4
			c-1-5.4-1.6-11.1-2.1-16.8c-0.5-5.7-0.8-11.5-1.1-17.3c-0.5-11.6-0.7-23.3-0.6-34.9l0.5-54.2l-11.3,52.6
			c-2.6,12.3-5.4,24.6-8.1,36.8c-2.8,12.3-5.6,24.5-8.5,36.7l-4.4,18.3c-1.5,6.1-3,12.1-4.6,18.1c-1.6,6-3.2,12-5,17.7
			c-0.9,2.9-1.8,5.8-2.7,8.4c-0.4,1-0.8,2-1.1,2.9l-20.1,0.6l19.1,12.9c0.6,0.4,1.3,0.8,2,1c0.4,0.1,0.8,0.2,1.1,0.2
			c0.4,0,0.7,0,1,0c0.4,0,0.7-0.1,0.9-0.2l25.4-1.3c9.1-0.4,18.1-1,27.2-1.5l27.2-1.6l27.2-1.8l27.2-2l27.2-2.1
			c9.1-0.7,18.1-1.5,27.2-2.3s18.1-1.7,27.1-2.6l1.2-0.1L484.9,512.8z M314.5,456.5L314.5,456.5
			C314.4,456.7,314.3,456.7,314.5,456.5z M457.2,512.2c-9.1,0-18.2-0.2-27.2-0.1l-27.2,0.1l-27.2,0.2l-27.2,0.4l-27.2,0.5
			c-9.1,0.2-18.1,0.3-27.2,0.6l-15.4,0.5c0.7-1.9,1.3-3.8,1.9-5.7c1.9-6.2,3.6-12.3,5.2-18.4c1.6-6.1,3.1-12.3,4.6-18.4
			c1.5-6.2,3-12.3,4.3-18.5c2.3-10.3,4.5-20.7,6.7-31.1c0.3,2.9,0.5,5.9,0.9,8.8c0.7,6,1.5,12,2.9,18c0.7,3.1,1.5,6.1,2.8,9.4
			c0.7,1.6,1.5,3.3,3.1,5.1c0.8,0.9,1.8,1.8,3.4,2.3c0.2,0.1,0.5,0.1,0.7,0.2c0.2,0,0.6,0.1,0.6,0.1h0.2h0.1h0.1c0.8,0,0.4,0,0.6,0
			c0.8-0.1,1.5-0.3,2.1-0.6c0.5-0.3,0.9-0.6,1.2-0.9c1.2-1.2,1.6-2.1,2.1-3c0.4-0.9,0.8-1.7,1.1-2.4c0.6-1.6,1.1-3.1,1.5-4.5
			c0.9-3,1.6-5.9,2.2-8.8c2.6-11.6,4.5-23.2,6.4-34.8c1.8-11.6,3.5-23.3,5.2-34.9l4.9-34.9l5.8-41.4c0,0.6,0.1,1.1,0.2,1.7
			c1,10.2,2.7,20.1,4.6,30c1.9,9.9,4.2,19.7,6.6,29.4c1.2,4.9,2.5,9.7,3.9,14.5l2.1,7.2c0.7,2.4,1.4,4.8,2.2,7.2l0.6,1.8l1.3,0.9
			c0.5,0.3,0.9,0.6,1.5,0.8c0.6,0.2,1.1,0.3,1.7,0.3c0.3,0,0.6,0,0.9,0c0.2,0,0.5-0.1,0.7-0.2c0.5-0.1,0.9-0.3,1.3-0.5
			c1.5-0.8,2.2-1.7,2.8-2.5c1.2-1.6,2-3,2.7-4.4c1.4-2.8,2.4-5.5,3.4-8.3c1.9-5.5,3.5-10.9,5.1-16.3c0.5-2,1-3.9,1.5-5.9
			c0,0,0,0,0,0.1c0.6,2.3,1.1,4.6,1.7,6.8l1.9,6.7c0.6,2.2,1.4,4.4,2.1,6.6s1.5,4.4,2.3,6.5c1.5,4.3,3.3,8.5,5,12.7
			c1.8,4.1,3.6,8.3,5.5,12.3c1.9,4.1,3.9,8.1,5.9,12c2.1,3.9,4.2,7.8,6.4,11.6c2.2,3.9,4.4,7.6,6.7,11.4l3.5,5.6
			c1.2,1.8,2.4,3.7,3.6,5.5c2.4,3.6,4.8,7.2,7.3,10.8s5,7.1,7.5,10.5c5.1,6.9,10.4,13.6,15.8,20.1c2.7,3.3,5.5,6.5,8.3,9.6
			c2.4,2.7,4.9,5.4,7.4,8C474.4,512.4,465.8,512.3,457.2,512.2z"/>
	</g>
	<g id="XMLID_1_">
		<path id="XMLID_3_" class="st3" d="M504,507.2c0-4.9,1.4-7.3,4.1-7.3c1.4,0,3.1,0.7,5.4,2.1c2.2,1.4,4.1,2.1,5.8,2.1
			c1.6,0,3.4-1.5,5.3-4.6s3.4-6.9,4.4-11.5c2.2-9.3,3.3-17.7,3.3-25.3c0-7.6-0.9-15.7-2.7-24.4c-1.8-8.7-3.9-16.8-6.5-24.4
			c-2.6-7.6-5.1-15.2-7.7-22.8c-6.1-18.2-9.1-34.7-9.1-49.5c0-14.1,3-25.2,8.9-33.2c3.2-4.2,6.9-6.4,11.2-6.4c2.2,0,4.3,0.9,6.4,2.7
			c2.1,1.8,3.5,4.2,4.3,7.1v5.8c-5.1,0-8.5-0.9-10.2-2.6c-2.2,0.4-4.2,1.9-5.8,4.8c-3,5.3-4.5,11.4-4.5,18.3s0.7,14.1,2,21.5
			c1.4,7.4,3,14.3,4.9,20.8c1.9,6.5,3.8,12.5,5.7,18.1c1.9,5.6,3.6,10.1,4.9,13.6c1.4,3.5,2,5.4,2,5.6v2.1c0.4,2.3,1.1,5.9,2.1,10.9
			c1,4.9,1.8,8.9,2.4,11.8c1.5,7.9,2.2,15.1,2.2,21.6c0,6.4-0.5,12.6-1.5,18.4s-2.5,11.3-4.4,16.5c-1.9,5.2-4.5,9.4-7.8,12.6
			c-3.3,3.3-6.3,4.9-9.2,4.9c-2.8,0-5.2-0.2-7.2-0.7c-1.9-0.4-3.9-1.4-5.8-2.9C505,511.2,504,509.4,504,507.2z"/>
		<path id="XMLID_10_" class="st3" d="M600.4,466.5l-1,5.4c0,2.2,0.5,7.6,1.6,16.2s1.6,14.2,1.6,16.8v0.3c0,4.1-0.9,6.6-2.7,7.7
			c-2.5,0-4.5-0.6-5.9-1.9s-2.1-4.3-2.1-9.3s-0.9-15.3-2.7-30.8l-5.6-0.8h-6c-1.4-0.9-3.7-1.3-7.2-1.3c0,0.2-0.1,1.3-0.2,3.5
			s-0.3,3.9-0.4,5.2c-0.1,1.3-0.2,3.3-0.4,5.9s-0.4,4.8-0.7,6.6c-0.2,1.8-0.5,3.9-0.9,6.4c-0.4,2.4-0.8,4.5-1.2,6.1
			s-0.9,3.2-1.5,4.7c-1.1,3.1-2.4,4.6-3.9,4.6s-2.9-0.7-4.1-2.1c-1.2-1.4-1.8-3.1-1.8-5.2c3.2-18.3,5.9-37.4,8.2-57.5
			c2.3-20,3.6-31.9,4.1-35.7c0.4-3.8,1.5-11,3.1-21.7c1.6-10.7,2.6-17.9,2.9-21.5s0.6-8.3,0.9-14c0.5-12.5,1.6-20.6,3.3-24.2h6.1
			c4.1,0,6.2,1.9,6.2,5.6c0,34.9,2.3,69.5,6.8,104c0.2,2,0.7,4.9,1.3,8.5C599.7,455.7,600.4,461.9,600.4,466.5z M588,460.7
			c-0.4-2.6-0.5-6.9-0.5-12.8s-0.3-13.1-0.8-21.5s-1.2-18.2-2.2-29.3c-0.9-11.1-1.6-19.2-1.9-24.1c-0.7,5.1-2.1,13.7-4.2,25.7
			c-4.2,25-6.3,44.2-6.5,57.7C574.1,458.3,579.4,459.8,588,460.7z"/>
		<path id="XMLID_14_" class="st3" d="M628.1,403.3l1.1,70.2v30.7c0,2.4-0.4,4.4-1.2,6c-0.8,1.6-2,2.5-3.5,2.5
			c-4,0-5.9-5.5-5.9-16.6l-0.4-95.6l1.1-50.6c0-12.2,2.2-18.3,6.6-18.3c2.7,0,4.6,3,5.8,9.1c1.7,11.7,4.5,28.4,8.6,50.3
			c4.1,21.9,6.9,38.5,8.5,49.9c1.1,5.6,2.6,13.8,4.3,24.7c1.8,10.9,3.2,19.1,4.2,24.6c0.5-39.2,0.7-86.7,0.7-142.5l-0.3-7.3
			c0-2.5,0.3-4.4,0.9-5.9s1.7-2.2,3.1-2.2c1.5,0,2.7,0.5,3.6,1.6c1.9,2.1,2.8,5.1,2.8,9c0,24.8-0.5,56.7-1.4,95.6
			c-0.9,38.9-2.4,63.3-4.2,73c-0.2,0.1-0.7,0.3-1.5,0.7c-0.8,0.4-1.3,0.6-1.7,0.7c-3.4,1.1-5.5,0.9-6.4-0.7
			c-0.9-1.6-1.5-3.7-1.9-6.4c-0.4-2.6-0.8-5.2-1.3-7.7s-2.4-14.5-5.6-36.1c-8.7-56.9-14-90.1-16-99.3L628.1,403.3L628.1,403.3z"/>
		<path id="XMLID_16_" class="st3" d="M702.2,485.2l0.4-9.3c-0.5-2.3-1.4-22.7-2.9-61.3c-1.5-38.5-2.3-62-2.4-70.5
			c-7-0.3-11.3-1.2-12.9-2.8c-1.7-1.6-2.5-3.3-2.5-5.1c0-1.8,0.6-3.2,1.9-4.3c1.3-1.1,2.6-1.7,3.8-1.7l24.6,2.5l2.9-0.1
			c3.8,0,5.7,2.2,5.7,6.5c0,2.2-0.6,4-1.9,5.4c-1.2,1.4-2.6,2.1-4.2,2.1l-8.3-1.9l-0.4,2.8c0,17.1,1,42.8,3,76.9
			c2,34.2,3,59.9,3,77.1c0,2.2-0.5,4.1-1.6,5.7s-2.4,2.4-3.9,2.4h-4.1L702.2,485.2z"/>
		<path id="XMLID_19_" class="st3" d="M758,507.3l-6.8,0.1l-7.9,0.5c-3.4,0-5.6-1.6-6.7-4.9c0-2.6,0.2-4.7,0.7-6.2
			c0.4-1.5,1.4-2.2,2.8-2.2h5.1l0.4-3.6l-1.2-57.6l1-60.4c0-10.2-0.3-19.8-0.9-28.9c-2.5,0-4.9,0-7,0c-2.2,0-3.7-0.5-4.7-1.5
			s-1.5-2.9-1.5-5.8c0-4.2,3.3-6.3,9.8-6.2h0.6c15.5,0,23.3,3.1,23.3,9.3c0,1-0.4,2.6-1.1,5h-9.3c0.5,6.6,0.7,14.4,0.7,23.3l-1,51.8
			l1.3,57.6v8.1c0,1.6-0.2,4-0.6,7.3h7.7c5,0,7.4,2.3,7.4,6.8c0,2-0.4,3.8-1.3,5.2c-0.9,1.4-1.8,2.1-2.9,2.1L758,507.3z"/>
		<path id="XMLID_21_" class="st3" d="M825.8,466.5l-1,5.4c0,2.2,0.5,7.6,1.6,16.2s1.6,14.2,1.6,16.8v0.3c0,4.1-0.9,6.6-2.7,7.7
			c-2.5,0-4.5-0.6-5.9-1.9c-1.4-1.2-2.1-4.3-2.1-9.3s-0.9-15.3-2.7-30.8l-5.6-0.8h-6c-1.4-0.9-3.7-1.3-7.2-1.3
			c0,0.2-0.1,1.3-0.2,3.5c-0.1,2.2-0.3,3.9-0.4,5.2c-0.1,1.3-0.2,3.3-0.4,5.9s-0.4,4.8-0.7,6.6c-0.2,1.8-0.5,3.9-0.9,6.4
			c-0.4,2.4-0.8,4.5-1.2,6.1s-0.9,3.2-1.5,4.7c-1.1,3.1-2.4,4.6-3.9,4.6s-2.9-0.7-4.1-2.1c-1.2-1.4-1.8-3.1-1.8-5.2
			c3.2-18.3,5.9-37.4,8.2-57.5c2.3-20,3.6-31.9,4.1-35.7c0.4-3.8,1.5-11,3.1-21.7s2.6-17.9,2.9-21.5c0.3-3.6,0.6-8.3,0.9-14
			c0.5-12.5,1.6-20.6,3.3-24.2h6.1c4.1,0,6.2,1.9,6.2,5.6c0,34.9,2.3,69.5,6.8,104c0.2,2,0.7,4.9,1.3,8.5
			C825.1,455.7,825.8,461.9,825.8,466.5z M813.4,460.7c-0.4-2.6-0.5-6.9-0.5-12.8s-0.3-13.1-0.8-21.5s-1.2-18.2-2.2-29.3
			c-0.9-11.1-1.6-19.2-1.9-24.1c-0.7,5.1-2.1,13.7-4.2,25.7c-4.2,25-6.3,44.2-6.5,57.7C799.4,458.3,804.8,459.8,813.4,460.7z"/>
		<path id="XMLID_24_" class="st3" d="M870.8,441.6l-3.2,0.1c-1.7,0-3.1-0.4-4.1-1.3c-1-0.8-1.5-2.5-1.5-5s0.5-4.4,1.6-5.8
			c1.1-1.3,2.4-2,4-2v0.1c11.8,0,17.7,2.8,17.7,8.3l-1.9,19.7l0.9,28.7c0,5.2-0.3,9.7-0.8,13.4c-7,9.6-13.2,14.4-18.7,14.4
			c-2.9,0-5.5-1.2-8-3.5s-4.8-6.3-7.1-12c-2.3-5.6-4.3-16.4-6-32.2c-1.7-15.8-2.6-26.9-2.6-33c0-6.2,0.1-11.3,0.3-15.4
			s0.4-8.7,0.8-13.8c0.4-5.2,0.6-8.5,0.6-10.1c0.1-1.5,0.2-3.8,0.3-6.6c0.1-2.9,0.3-5.6,0.4-8.2c0.1-2.6,0.5-6.3,1-11
			s1-8.5,1.6-11.2s1.4-5.8,2.6-9.3c1.1-3.5,2.4-6.2,3.9-8.1c3.6-4.6,7.8-6.9,12.5-6.9c4.8,0,7.1,2.3,7.1,6.9c0,2.1-0.5,3.9-1.5,5.2
			c-1,1.4-2.2,2.1-3.6,2.1l-3.3-0.7c-3.5,0-6.2,6.2-8.1,18.5c-1.8,12-2.8,22.8-3.1,32.4c-0.5,14.7-0.8,24.6-0.8,29.5s0,8.7,0,11.4
			c0,2.7,0.1,6,0.2,10.1c0.1,4,0.2,7.6,0.4,10.7s0.5,6.5,0.8,10.3c0.4,3.8,0.8,7,1.3,9.8s1.1,5.6,1.9,8.3c0.7,2.8,1.6,5.1,2.5,6.8
			c2.1,4,4.7,6,7.6,6c5.3,0,7.8-15.2,7.7-45.7v-9.9C873.7,442,872.5,441.6,870.8,441.6z"/>
		<path id="XMLID_26_" class="st3" d="M943.2,437.4c0,52-7.1,78-21.3,78c-13.1,0-20.5-24.6-22-73.9c-0.1-4.7-0.2-9.4-0.2-14
			l-0.1-16.6v-5.3c0-38.2,3.7-61.8,11.2-70.9c1.8-2.2,3.9-3.4,6.1-3.6c1.7,0.9,3.8,1.7,6.3,2.5s4.3,1.5,5.5,2.3
			c2.2,1.5,4.5,5.4,7.1,11.7c2.5,6.3,4.4,14.7,5.6,25.3c1.2,10.6,1.8,21.1,1.8,31.7L943.2,437.4L943.2,437.4z M909.5,373.5l0.3,15.9
			l-0.1,26c0,2.2,0,4.8,0.1,7.8s0.1,7,0.2,11.9c0.1,4.9,0.3,9.8,0.5,14.6c0.3,4.8,0.6,9.9,0.9,15.2c0.4,5.3,0.8,10.3,1.4,14.8
			c0.6,4.5,1.2,8.7,1.9,12.4c1.6,8,3.7,12.1,6.3,12.1c3.5,0,6.1-4.9,8-14.7c2.7-14.6,4.1-32.5,4.1-53.8l0.3-27.9
			c0-19.6-0.6-32.8-1.7-39.6c-1.2-6.8-2.2-11.9-3.2-15.4c-2-7-5-10.5-9.1-10.5c-0.1,0-0.2,0-0.4,0
			C912.7,342.3,909.5,352.7,909.5,373.5z"/>
	</g>
</g>
</svg>
