<?xml version="1.0" encoding="utf-8"?>
<!-- Generator: Adobe Illustrator 23.0.1, SVG Export Plug-In . SVG Version: 6.00 Build 0)  -->
<svg version="1.1" id="Layer_1" xmlns="http://www.w3.org/2000/svg" xmlns:xlink="http://www.w3.org/1999/xlink" x="0px" y="0px"
	 viewBox="0 0 297.7 242.17" style="enable-background:new 0 0 297.7 242.17;" xml:space="preserve">
<style type="text/css">
	.st0{fill:#89CFF2;}
	.st1{fill:#D0ECFB;}
	.st2{fill:#426A7F;}
</style>
<g>
	<g>
		<path class="st0" d="M86.86,96.9H74.88h-0.35H8.79v91.07h65.73h1.29h56.74v-10.85H86.86V96.9z M20.82,177.12v-30.87h49.97v-10.54
			H20.82v-27.65h53.7v69.06H20.82z"/>
		<polygon class="st0" points="285.87,108.06 285.87,96.9 225.04,96.9 219.79,96.9 151.5,96.9 151.2,96.9 139.04,96.9 
			139.04,187.97 151.5,187.97 151.5,107.75 181.89,107.75 181.89,187.97 194.35,187.97 194.35,107.75 219.79,107.75 219.79,187.97 
			286.8,187.97 286.8,177.12 231.81,177.12 231.81,146.25 281.78,146.25 281.78,135.71 231.81,135.71 231.81,108.06 		"/>
	</g>
	<g>
		<polygon class="st1" points="258.6,85.7 147.8,6.83 37,85.7 147.8,26.14 		"/>
		<polygon class="st1" points="256.73,91.32 147.8,36.72 37,91.32 147.8,56.02 		"/>
	</g>
	<g>
		<polygon class="st2" points="30.42,215.01 16.27,215.01 16.27,200.72 10.24,200.72 10.24,235.04 16.27,235.04 16.27,219.42 
			30.42,219.42 30.42,235.04 36.45,235.04 36.45,200.72 30.42,200.72 		"/>
		<path class="st2" d="M50.9,200.72l-13.18,34.32h5.98l3.24-8.97h12.37l3.14,8.97h6.44l-13.23-34.32H50.9z M48.57,221.6
			c2.08-5.88,3.7-11.15,4.61-14.14c0.81,2.79,2.44,8.11,4.56,14.14H48.57z"/>
		<path class="st2" d="M86.13,218.51c4.46-1.37,6.29-4.61,6.29-8.52c0-5.93-3.7-9.38-12.07-9.38c-2.69,0-9.18,0.1-10.19,0.1v34.32
			h6.03v-14.85h1.47c5.07,0,6.79,4.11,11.41,14.85h6.54C91.76,226.06,89.93,220.64,86.13,218.51z M80.1,215.77h-3.9v-10.85h3.4
			c4.97,0,6.44,2.84,6.44,5.83C86.03,214.05,83.85,215.77,80.1,215.77z"/>
		<path class="st2" d="M107.17,200.62c-3.14,0-8.92,0.1-9.94,0.1v34.32c1.07,0,5.12,0.1,9.28,0.1c12.11,0,17.59-6.18,17.59-17.49
			C124.1,206.45,118.57,200.62,107.17,200.62z M107.27,230.63c-2.23,0-3.24,0-4-0.05v-25.4c0.61,0,1.67-0.05,3.19-0.05
			c8.11,0,11.1,5.22,11.1,13.08C117.56,226.42,114.32,230.63,107.27,230.63z"/>
		<path class="st2" d="M166.58,200.62l-8.72,21.49c-0.66,1.62-1.47,3.5-2.13,5.22c-0.66-1.77-1.52-3.7-2.13-5.22l-8.67-21.49h-4.72
			l-2.03,34.42h5.68l0.51-13.28c0.05-1.32,0.15-4.97,0.2-8.47c1.27,3.45,2.74,7.2,3.4,8.72l5.73,13.03h4.26l5.68-13.18
			c0.56-1.42,1.93-5.02,3.14-8.36c0.05,3.24,0.2,6.74,0.25,8.42l0.56,13.13h5.63l-2.03-34.42H166.58z"/>
		<path class="st2" d="M191.52,200.26c-10.29,0-15,7.45-15,18.05c0,10.75,4.21,17.03,14.35,17.03c10.24,0,14.96-7.2,14.96-17.74
			C205.82,206.9,201.61,200.26,191.52,200.26z M191.57,230.68c-6.99,0-8.52-6.08-8.52-12.93c0-7.25,1.88-12.82,7.76-12.82
			c6.99,0,8.52,6.34,8.52,13.18C199.33,225.3,197.45,230.68,191.57,230.68z"/>
		<path class="st2" d="M230.05,218.66c0,1.57,0.15,3.9,0.31,6.08c-1.32-2.03-2.79-4.36-4.11-6.29l-11.91-17.84h-4.72v34.42h6.03
			l-0.15-17.95c0-2.13-0.2-4.61-0.41-6.79c1.32,2.08,2.99,4.82,4.26,6.74l11.56,18.05h5.02v-34.37h-6.03L230.05,218.66z"/>
		<polygon class="st2" points="247.03,219.47 258.08,219.47 258.84,214.86 247.03,214.86 247.03,205.28 261.38,205.28 
			261.38,200.72 241,200.72 241,235.04 262.14,235.04 262.14,230.47 247.03,230.47 		"/>
		<polygon class="st2" points="282.52,200.72 275.17,216.28 267.97,200.72 261.43,200.72 272.07,221.91 272.07,235.04 
			278.11,235.04 278.11,222.16 288.9,200.72 		"/>
	</g>
</g>
</svg>
