<?xml version="1.0" encoding="utf-8"?>
<!-- Generator: Adobe Illustrator 19.0.0, SVG Export Plug-In . SVG Version: 6.00 Build 0)  -->
<svg version="1.1" id="Layer_1" xmlns="http://www.w3.org/2000/svg" xmlns:xlink="http://www.w3.org/1999/xlink" x="0px" y="0px"
	 viewBox="0 0 183.5 102.5" style="enable-background:new 0 0 183.5 102.5;" xml:space="preserve">
<g id="XMLID_55_">
	<g id="XMLID_54_">
		<path id="XMLID_3_" d="M-469.5,415c-1.1-1-1.7-2.3-1.7-3.8h1.1c0,1.2,0.4,2.2,1.3,3.1c0.9,0.9,2,1.3,3.2,1.3
			c1.4,0,2.5-0.4,3.5-1.1c1-0.7,1.4-1.6,1.4-2.6c0-0.9-0.4-1.6-1.3-2.2c-0.8-0.6-2-1-3.4-1.1c-1.7-0.1-3.1-0.6-4.1-1.5
			c-1-0.8-1.6-1.9-1.6-3.1c0-1.2,0.5-2.2,1.6-3.1c1.1-0.9,2.3-1.3,3.8-1.3c1.6,0,3,0.4,4.1,1.3c1.1,0.9,1.7,2,1.7,3.2h-1.1
			c0-1-0.5-1.8-1.4-2.5c-0.9-0.7-2-1-3.3-1c-1.2,0-2.2,0.3-3.1,1c-0.8,0.6-1.3,1.4-1.3,2.3c0,0.9,0.4,1.7,1.3,2.3
			c0.9,0.6,2.1,1,3.5,1.1c1.7,0.1,3,0.6,4,1.4c1,0.8,1.5,1.8,1.5,3c0,1.3-0.6,2.4-1.8,3.4c-1.2,0.9-2.6,1.4-4.3,1.4
			C-467.1,416.6-468.4,416-469.5,415z"/>
		<path id="XMLID_5_" d="M-456.7,415.6c-0.8-0.7-1.2-1.4-1.2-2.3c0-0.9,0.4-1.6,1.2-2.3c0.8-0.7,1.8-1,2.9-1.1
			c1.1-0.1,2.1-0.3,2.8-0.5c0.7-0.3,1.1-0.6,1.1-0.9v-1c0-0.6-0.3-1.1-1-1.5c-0.6-0.4-1.4-0.6-2.3-0.6c-0.9,0-1.6,0.2-2.3,0.6
			c-0.6,0.4-0.9,0.9-0.9,1.5v0.6h-1v-0.7c0-0.8,0.4-1.4,1.2-2c0.8-0.5,1.8-0.8,3-0.8c1.2,0,2.2,0.3,3.1,0.8c0.9,0.5,1.3,1.2,1.3,1.9
			v7c0,0.5,0.1,0.8,0.3,1.2c0.2,0.3,0.4,0.5,0.7,0.5c0.1,0,0.2,0,0.2,0c0.1,0,0.1,0,0.2-0.1v0.5c-0.3,0.1-0.6,0.2-1,0.2
			c-0.4,0-0.8-0.2-1.1-0.5c-0.3-0.4-0.4-0.8-0.4-1.3c-0.2,0.6-0.7,1.1-1.4,1.5c-0.7,0.4-1.5,0.6-2.5,0.6
			C-455,416.6-455.9,416.2-456.7,415.6z M-451.3,414.8c0.7-0.6,1.2-1.4,1.4-2.4v-2.7c-0.3,0.2-0.7,0.4-1.4,0.5
			c-0.6,0.1-1.5,0.3-2.5,0.4c-0.9,0.1-1.6,0.4-2.2,0.9c-0.6,0.5-0.9,1.1-0.9,1.7c0,0.7,0.3,1.3,0.9,1.7c0.6,0.5,1.3,0.7,2.1,0.7
			C-452.9,415.7-452,415.4-451.3,414.8z"/>
		<path id="XMLID_8_" d="M-445.3,416.1v-11.6h1.1v2c0.3-0.7,0.8-1.2,1.5-1.6c0.7-0.4,1.4-0.6,2.2-0.6c1.1,0,2.1,0.4,2.9,1.1
			c0.8,0.8,1.2,1.7,1.2,2.7v8.1h-1.1v-8.1c0-0.8-0.3-1.5-0.9-2c-0.6-0.6-1.3-0.8-2.2-0.8c-0.9,0-1.7,0.3-2.4,0.9
			c-0.7,0.6-1.1,1.4-1.3,2.4v7.7H-445.3z"/>
	</g>
	<g id="XMLID_2_">
		<path id="XMLID_10_" d="M-461.2,436v0.5h-4.7V436l2.2-0.9l6.3-16.7h0.4l6,17.2l2,0.3v0.5h-6.5V436l1.8-0.3l-1.9-5.2h-5.8l-1.8,4.6
			L-461.2,436z M-458.4,422.3l-2.9,7.7h5.5L-458.4,422.3z"/>
		<path id="XMLID_13_" d="M-441,436.5v-0.4l1.3-0.2v-7.7c0-1.6-0.6-2.4-1.9-2.4c-0.7,0-1.3,0.2-1.9,0.7c-0.6,0.5-1.2,1.1-1.7,1.8
			v7.6l1.3,0.2v0.4h-5.1v-0.4l1.5-0.2v-10.1l-1.5-0.2v-0.4h3.7v2.4c1.2-1.7,2.6-2.6,4.3-2.6c1.1,0,1.9,0.3,2.5,0.8
			c0.6,0.5,0.9,1.3,0.9,2.4v7.8l1.5,0.2v0.4H-441z"/>
		<path id="XMLID_15_" d="M-425.7,436.5v-2.3c-0.8,1.7-2,2.5-3.7,2.5c-1.6,0-2.8-0.5-3.8-1.6c-1-1.1-1.5-2.5-1.5-4.3
			c0-1.8,0.5-3.2,1.5-4.3c1-1.1,2.2-1.6,3.9-1.6c1.6,0,2.8,0.8,3.6,2.5v-7.8l-1.5-0.2v-0.4h3.7v16.9l1.5,0.2v0.4H-425.7z
			 M-432.2,429.7v2.2c0,2.8,1,4.3,3.1,4.3c1,0,1.8-0.4,2.4-1.2c0.7-0.8,1-1.8,1-2.9v-2.5c0-1.1-0.4-2.1-1-2.9
			c-0.7-0.8-1.5-1.2-2.4-1.2C-431.2,425.5-432.2,426.9-432.2,429.7z"/>
		<path id="XMLID_18_" d="M-420.9,436.5v-0.4l1.5-0.2v-10.1l-1.5-0.2v-0.4h3.7v1.7c0.9-1.3,2-1.9,3.1-1.9c0.6,0,1,0.1,1.5,0.4
			c0.4,0.3,0.6,0.7,0.6,1.1c0,0.5-0.1,0.8-0.4,1.1c-0.2,0.3-0.6,0.4-1,0.4c-0.4,0-0.8-0.2-1.1-0.5c0.2-0.2,0.2-0.4,0.2-0.7
			s-0.1-0.4-0.3-0.6c-0.2-0.2-0.4-0.2-0.7-0.2c-0.6,0-1.2,0.6-2,1.8v8.2l1.8,0.2v0.4H-420.9z"/>
		<path id="XMLID_20_" d="M-405.3,436.2c0.5,0,1-0.1,1.5-0.2c0.5-0.2,0.9-0.4,1.2-0.6c0.8-0.6,1.3-1.3,1.4-2.2h0.5
			c-0.2,1.1-0.7,2-1.6,2.6c-0.8,0.6-1.9,1-3.1,1c-1.7,0-3-0.5-4.2-1.6c-1.1-1.1-1.6-2.5-1.6-4.3c0-1.7,0.5-3.1,1.6-4.3
			c1.1-1.1,2.4-1.6,4-1.6c1.4,0,2.6,0.4,3.4,1.3c0.9,0.9,1.4,2.1,1.4,3.5h-8.1v2.2c0,1.3,0.3,2.3,0.9,3.1
			C-407.1,435.8-406.3,436.2-405.3,436.2z M-405.4,425.4c-1,0-1.7,0.3-2.3,1c-0.5,0.7-0.9,1.6-0.9,2.7h5.6
			C-403,426.7-403.8,425.4-405.4,425.4z"/>
		<path id="XMLID_23_" d="M-391.7,434.3c-0.4,0.7-0.9,1.3-1.6,1.8c-0.7,0.4-1.6,0.6-2.5,0.6c-0.9,0-1.7-0.2-2.2-0.7s-0.9-1.2-0.9-2
			s0.2-1.5,0.5-2c0.4-0.5,0.8-0.9,1.5-1.2c1.1-0.5,2.5-0.8,4.4-0.8h0.8v-2.1c0-1.6-0.7-2.5-2.2-2.5c-0.7,0-1.2,0.2-1.6,0.5
			c-0.4,0.3-0.6,0.7-0.6,1.1c0,0.4,0.2,0.7,0.6,0.8c0,0.4-0.1,0.7-0.4,1c-0.3,0.3-0.6,0.4-1,0.4c-0.4,0-0.7-0.1-1-0.4
			s-0.4-0.6-0.4-1c0-0.4,0.1-0.8,0.4-1.1s0.6-0.6,1-0.9c0.8-0.5,1.8-0.8,3.1-0.8c3,0,4.4,1.1,4.4,3.4v6.7c0,0.7,0.3,1,0.8,1
			c0.5,0,0.8-0.3,0.8-0.9h0.5c0,0.5-0.2,0.9-0.5,1.2c-0.3,0.3-0.8,0.4-1.5,0.4s-1.2-0.2-1.6-0.6
			C-391.4,435.7-391.6,435.1-391.7,434.3z M-391.7,432.8v-2.3h-0.8c-1.1,0-2.1,0.3-2.9,0.8c-0.8,0.5-1.2,1.4-1.2,2.5
			c0,0.6,0.2,1,0.5,1.4c0.3,0.3,0.8,0.5,1.4,0.5c0.6,0,1.3-0.3,1.9-0.8S-391.7,433.7-391.7,432.8z"/>
		<path id="XMLID_26_" d="M-382.1,436.7c-3,0-4.4-0.8-4.4-2.4c0-0.4,0.1-0.8,0.4-1.1c0.3-0.3,0.6-0.5,0.9-0.5c0.7,0,1.1,0.3,1.3,0.9
			c-0.2,0.3-0.4,0.6-0.4,0.9c0,0.6,0.2,1,0.6,1.3c0.4,0.3,1,0.4,1.8,0.4c0.8,0,1.5-0.2,2.1-0.6c0.6-0.4,0.9-0.9,0.9-1.5
			c0-0.6-0.2-1-0.6-1.3c-0.4-0.3-1.1-0.6-2-0.9l-2.8-0.9c-1.3-0.4-2-1.3-2-2.9c0-1,0.4-1.8,1.1-2.4c0.8-0.6,1.7-1,3-1
			c1.2,0,2.2,0.2,2.9,0.6c0.7,0.4,1,1,1,1.6c0,0.4-0.1,0.7-0.4,1c-0.2,0.3-0.5,0.4-0.9,0.4c-0.3,0-0.6-0.1-0.8-0.3
			c-0.2-0.2-0.3-0.4-0.3-0.7c0.3-0.2,0.5-0.5,0.5-0.9c0-0.9-0.7-1.4-2-1.4c-1,0-1.7,0.2-2.3,0.6c-0.6,0.4-0.8,0.8-0.8,1.3
			s0.1,0.8,0.3,1.1c0.2,0.2,0.6,0.4,1.2,0.6l3.5,1.1c0.8,0.3,1.4,0.7,1.8,1.2c0.4,0.5,0.6,1.2,0.6,2.1s-0.3,1.7-1,2.4
			C-379.7,436.4-380.7,436.7-382.1,436.7z"/>
	</g>
</g>
<path id="XMLID_1_" d="M-487.6-4c0,0-0.6,2.4-1.7,7.1c-1.1,4.6-2.4,11.4-4.1,20c-0.8,4.3-1.7,9.1-2.6,14.3
	c-0.8,5.2-1.9,10.9-2.8,16.9c-0.9,6.1-1.9,12.5-2.8,19.3c-0.5,3.4-0.9,6.9-1.4,10.5c-0.4,3.6-0.9,7.2-1.3,11
	c-1,7.5-1.6,15.3-2.4,23.4c-0.7,8.1-1.4,16.5-2.1,25.1c-0.3,4.3-0.5,8.7-0.8,13.1c-0.2,4.4-0.6,8.9-0.7,13.4
	c-0.2,9.1-0.8,18.3-0.8,27.7c-0.1,4.7-0.1,9.4-0.2,14.2c-0.1,4.8,0.1,9.6,0.1,14.4c0,2.4,0.1,4.8,0.1,7.3l0.1,3.7l0,1.8l0,0.5l0,0.3
	l0,0.9c0.2,4.9,0.5,9.8,0.7,14.8c0.3,10,1.5,19.7,2.3,29.6c0.1,1.2,0.2,2.5,0.4,3.7l0.5,3.7l1,7.4c0.7,4.9,1.2,9.9,2.2,14.8
	c0.8,4.9,1.7,9.9,2.5,14.8c0.9,4.9,1.9,9.8,2.8,14.7c0.5,2.5,1,4.9,1.4,7.3c0.5,2.4,1,4.9,1.6,7.3c1,4.9,2.1,9.7,3.1,14.6
	c1,4.9,2.1,9.7,3.1,14.5c1,4.8,2,9.6,2.9,14.4c2,9.5,3.6,19.1,5.3,28.4c0.2,1.2,0.4,2.3,0.6,3.5c0.2,1.2,0.3,2.3,0.5,3.5
	c0.3,2.3,0.7,4.7,1,7c0.7,4.6,1.4,9.2,1.9,13.7c0.5,4.6,1,9.1,1.4,13.5c0.4,4.4,1,8.8,1.2,13.2c0.3,4.3,0.6,8.6,0.8,12.9
	c0.2,4.2,0.6,8.4,0.6,12.5c0.1,8.2,0.2,16.1,0.3,23.7c-0.2,7.6-0.4,14.9-0.6,21.8c-0.1,3.5-0.2,6.8-0.4,10.1
	c-0.3,3.3-0.5,6.4-0.7,9.5c-1,12.3-1.6,23-2.9,31.7c-1,8.8-2,15.6-2.6,20.3c-0.6,4.7-0.9,7.2-0.9,7.2s0.1-2.5,0.4-7.2
	c0.3-4.7,0.6-11.6,1.2-20.4c0.7-8.8,0.7-19.5,1.1-31.7c0.1-3.1,0.2-6.2,0.2-9.5c0-3.3-0.1-6.6-0.1-10c-0.1-6.9-0.2-14.1-0.3-21.6
	c-0.4-7.5-0.8-15.3-1.3-23.4c-0.1-4.1-0.6-8.1-1-12.3c-0.4-4.2-0.8-8.4-1.2-12.7c-0.3-4.3-1-8.6-1.6-13c-0.6-4.4-1.2-8.8-1.8-13.3
	c-0.3-2.2-0.7-4.5-1.1-6.7c-0.4-2.3-0.8-4.5-1.1-6.8c-0.4-2.3-0.8-4.6-1.1-6.9c-0.2-1.1-0.4-2.3-0.6-3.4c-0.2-1.1-0.5-2.3-0.7-3.5
	c-3.5-18.5-7.9-37.4-12.1-56.8c-1.1-4.9-2.1-9.7-3.2-14.6c-0.5-2.4-1.1-4.9-1.6-7.3c-0.5-2.5-1-4.9-1.5-7.4c-1-4.9-2-9.9-2.9-14.9
	c-0.9-5-1.7-10-2.6-15c-0.9-5-1.4-10.1-2.1-15.1l-1-7.5l-0.5-3.8c-0.2-1.3-0.2-2.5-0.4-3.8c-0.8-10.1-2-20.3-2.2-30.2
	c-0.2-5-0.4-9.9-0.6-14.8l0.1-0.9l0.1-0.6v-0.5l-0.1-1.8l-0.1-3.7c0-2.5,0-4.9,0-7.4c0-4.9,0-9.7,0.1-14.6c0.1-4.8,0.3-9.6,0.4-14.3
	c0.1-4.7,0.3-9.4,0.6-14.1c0.3-4.7,0.6-9.3,0.8-13.8c0.2-4.6,0.7-9.1,1.1-13.5c0.4-4.4,0.8-8.8,1.1-13.2c0.5-4.3,0.9-8.6,1.4-12.8
	c0.5-4.2,0.8-8.3,1.5-12.4c1.2-8.1,2.1-15.9,3.4-23.4c0.6-3.7,1.2-7.4,1.8-11c0.6-3.6,1.2-7.1,1.9-10.5c1.2-6.8,2.5-13.2,3.8-19.2
	c0.6-3,1.2-5.9,1.9-8.7c0.6-2.8,1.2-5.5,1.8-8.1c1.2-5.2,2.4-9.9,3.5-14.2c2.2-8.6,4.1-15.2,5.5-19.7C-488.4-1.6-487.6-4-487.6-4z"
	/>
<path id="XMLID_29_" d="M-173.6-4c0,0-0.6,2.4-1.7,7.1c-1.1,4.6-2.4,11.4-4.1,20c-0.8,4.3-1.7,9.1-2.6,14.3
	c-0.8,5.2-1.9,10.9-2.8,16.9c-0.9,6.1-1.9,12.5-2.8,19.3c-0.5,3.4-0.9,6.9-1.4,10.5c-0.4,3.6-0.9,7.2-1.3,11
	c-1,7.5-1.6,15.3-2.4,23.4c-0.7,8.1-1.4,16.5-2.1,25.1c-0.3,4.3-0.5,8.7-0.8,13.1c-0.2,4.4-0.6,8.9-0.7,13.4
	c-0.2,9.1-0.8,18.3-0.8,27.7c-0.1,4.7-0.1,9.4-0.2,14.2c-0.1,4.8,0.1,9.6,0.1,14.4c0,2.4,0.1,4.8,0.1,7.3l0.1,3.7l0,1.8l0,0.5l0,0.3
	l0,0.9c0.2,4.9,0.5,9.8,0.7,14.8c0.3,10,1.5,19.7,2.3,29.6c0.1,1.2,0.2,2.5,0.4,3.7l0.5,3.7l1,7.4c0.7,4.9,1.2,9.9,2.2,14.8
	c0.8,4.9,1.7,9.9,2.5,14.8c0.9,4.9,1.9,9.8,2.8,14.7c0.5,2.5,1,4.9,1.4,7.3c0.5,2.4,1,4.9,1.6,7.3c1,4.9,2.1,9.7,3.1,14.6
	c1,4.9,2.1,9.7,3.1,14.5c1,4.8,2,9.6,2.9,14.4c2,9.5,3.6,19.1,5.3,28.4c0.2,1.2,0.4,2.3,0.6,3.5c0.2,1.2,0.3,2.3,0.5,3.5
	c0.3,2.3,0.7,4.7,1,7c0.7,4.6,1.4,9.2,1.9,13.7c0.5,4.6,1,9.1,1.4,13.5c0.4,4.4,1,8.8,1.2,13.2c0.3,4.3,0.6,8.6,0.8,12.9
	c0.2,4.2,0.6,8.4,0.6,12.5c0.1,8.2,0.2,16.1,0.3,23.7c-0.2,7.6-0.4,14.9-0.6,21.8c-0.1,3.5-0.2,6.8-0.4,10.1
	c-0.3,3.3-0.5,6.4-0.7,9.5c-1,12.3-1.6,23-2.9,31.7c-1,8.8-2,15.6-2.6,20.3c-0.6,4.7-0.9,7.2-0.9,7.2s0.1-2.5,0.4-7.2
	c0.3-4.7,0.6-11.6,1.2-20.4c0.7-8.8,0.7-19.5,1.1-31.7c0.1-3.1,0.2-6.2,0.2-9.5c0-3.3-0.1-6.6-0.1-10c-0.1-6.9-0.2-14.1-0.3-21.6
	c-0.4-7.5-0.8-15.3-1.3-23.4c-0.1-4.1-0.6-8.1-1-12.3c-0.4-4.2-0.8-8.4-1.2-12.7c-0.3-4.3-1-8.6-1.6-13c-0.6-4.4-1.2-8.8-1.8-13.3
	c-0.3-2.2-0.7-4.5-1.1-6.7c-0.4-2.3-0.8-4.5-1.1-6.8c-0.4-2.3-0.8-4.6-1.1-6.9c-0.2-1.1-0.4-2.3-0.6-3.4c-0.2-1.1-0.5-2.3-0.7-3.5
	c-3.5-18.5-7.9-37.4-12.1-56.8c-1.1-4.9-2.1-9.7-3.2-14.6c-0.5-2.4-1.1-4.9-1.6-7.3c-0.5-2.5-1-4.9-1.5-7.4c-1-4.9-2-9.9-2.9-14.9
	c-0.9-5-1.7-10-2.6-15c-0.9-5-1.4-10.1-2.1-15.1l-1-7.5l-0.5-3.8c-0.2-1.3-0.2-2.5-0.4-3.8c-0.8-10.1-2-20.3-2.2-30.2
	c-0.2-5-0.4-9.9-0.6-14.8l0.1-0.9l0.1-0.6v-0.5l-0.1-1.8l-0.1-3.7c0-2.5,0-4.9,0-7.4c0-4.9,0-9.7,0.1-14.6c0.1-4.8,0.3-9.6,0.4-14.3
	c0.1-4.7,0.3-9.4,0.6-14.1c0.3-4.7,0.6-9.3,0.8-13.8c0.2-4.6,0.7-9.1,1.1-13.5c0.4-4.4,0.8-8.8,1.1-13.2c0.5-4.3,0.9-8.6,1.4-12.8
	c0.5-4.2,0.8-8.3,1.5-12.4c1.2-8.1,2.1-15.9,3.4-23.4c0.6-3.7,1.2-7.4,1.8-11c0.6-3.6,1.2-7.1,1.9-10.5c1.2-6.8,2.5-13.2,3.8-19.2
	c0.6-3,1.2-5.9,1.9-8.7c0.6-2.8,1.2-5.5,1.8-8.1c1.2-5.2,2.4-9.9,3.5-14.2c2.2-8.6,4.1-15.2,5.5-19.7C-174.4-1.6-173.6-4-173.6-4z"
	/>
<text id="XMLID_43_" transform="matrix(1 0 0 1 161.4922 186.4507)" style="font-family:'MyriadPro-Regular'; font-size:12px;">     </text>
<g id="XMLID_59_">
	<g id="XMLID_104_">
		<path id="XMLID_110_" d="M22.6,43.5c-1.7-1.6-2.5-3.5-2.5-5.8h1.7c0,1.8,0.7,3.4,2,4.7c1.4,1.3,3,2,4.9,2c2.1,0,3.9-0.6,5.4-1.7
			c1.5-1.1,2.2-2.5,2.2-4c0-1.4-0.7-2.5-2-3.4c-1.3-0.9-3-1.5-5.2-1.7c-2.6-0.2-4.8-1-6.3-2.3c-1.6-1.3-2.4-2.9-2.4-4.7
			c0-1.8,0.8-3.4,2.4-4.7c1.6-1.3,3.6-2,5.8-2c2.4,0,4.5,0.7,6.3,2c1.7,1.4,2.6,3,2.6,4.9H36c0-1.5-0.7-2.7-2.1-3.8
			c-1.4-1.1-3.1-1.6-5.1-1.6c-1.8,0-3.4,0.5-4.7,1.5c-1.3,1-1.9,2.2-1.9,3.6c0,1.4,0.7,2.6,2,3.5c1.4,0.9,3.2,1.5,5.4,1.7
			c2.6,0.2,4.6,1,6.2,2.2c1.5,1.3,2.3,2.8,2.3,4.6c0,2-0.9,3.7-2.7,5.1c-1.8,1.4-4,2.1-6.6,2.1C26.3,45.9,24.3,45.1,22.6,43.5z"/>
		<path id="XMLID_107_" d="M42.1,44.5c-1.3-1-1.9-2.2-1.9-3.6c0-1.3,0.6-2.5,1.8-3.5c1.2-1,2.7-1.6,4.5-1.8c1.8-0.2,3.2-0.4,4.3-0.8
			c1.1-0.4,1.7-0.8,1.7-1.4v-1.6c0-0.9-0.5-1.7-1.5-2.3c-1-0.6-2.2-1-3.6-1c-1.3,0-2.5,0.3-3.5,0.9c-0.9,0.6-1.4,1.4-1.4,2.3v0.9
			h-1.6v-1.1c0-1.2,0.6-2.2,1.9-3c1.3-0.8,2.8-1.3,4.6-1.3c1.8,0,3.4,0.4,4.7,1.2c1.3,0.8,2,1.8,2,2.9v10.8c0,0.7,0.2,1.3,0.5,1.8
			c0.3,0.5,0.7,0.8,1.1,0.8c0.1,0,0.3,0,0.4,0c0.1,0,0.2-0.1,0.3-0.1v0.8c-0.4,0.2-0.9,0.3-1.6,0.3c-0.6,0-1.2-0.3-1.7-0.8
			c-0.4-0.6-0.7-1.2-0.7-2c-0.3,0.9-1,1.7-2.1,2.3c-1.1,0.6-2.3,0.9-3.8,0.9C44.9,45.9,43.4,45.5,42.1,44.5z M50.5,43.2
			c1.1-0.9,1.8-2.2,2.1-3.6v-4.1c-0.4,0.3-1.1,0.6-2.1,0.8c-1,0.2-2.3,0.4-3.9,0.5c-1.3,0.1-2.4,0.6-3.3,1.3
			C42.4,39,42,39.9,42,40.9c0,1.1,0.5,1.9,1.4,2.7c0.9,0.8,2,1.1,3.3,1.1C48.1,44.7,49.4,44.2,50.5,43.2z"/>
		<path id="XMLID_105_" d="M59.6,45.3V27.5h1.7v3c0.5-1.1,1.3-1.9,2.3-2.5c1-0.6,2.2-1,3.4-1c1.8,0,3.2,0.6,4.5,1.7
			c1.3,1.2,1.9,2.6,1.9,4.2v12.4h-1.7V33c0-1.2-0.5-2.3-1.4-3.1c-0.9-0.9-2-1.3-3.3-1.3c-1.4,0-2.6,0.5-3.7,1.4
			c-1.1,1-1.8,2.2-2,3.6v11.7H59.6z"/>
	</g>
	<g id="XMLID_85_">
		<path id="XMLID_101_" d="M35.3,75.7v0.7h-7.2v-0.7l3.3-1.3l9.7-25.5h0.5l9.2,26.3l3.1,0.5v0.7H44v-0.7l2.8-0.4l-2.9-8H35l-2.7,7.1
			L35.3,75.7z M39.7,54.8l-4.4,11.8h8.4L39.7,54.8z"/>
		<path id="XMLID_99_" d="M66.2,76.4v-0.7l2-0.3V63.6c0-2.4-1-3.7-2.9-3.7c-1,0-2,0.4-3,1.1c-1,0.8-1.8,1.7-2.5,2.8v11.6l2,0.3v0.7
			h-7.7v-0.7l2.4-0.3V60l-2.4-0.3V59h5.7v3.6c1.8-2.6,4-3.9,6.6-3.9c1.6,0,2.9,0.4,3.8,1.2s1.4,2,1.4,3.6v11.9l2.4,0.3v0.7H66.2z"/>
		<path id="XMLID_96_" d="M89.6,76.4v-3.5c-1.2,2.6-3.1,3.8-5.7,3.8c-2.4,0-4.4-0.8-5.8-2.5c-1.5-1.6-2.2-3.8-2.2-6.6
			c0-2.7,0.7-4.9,2.2-6.6c1.5-1.6,3.4-2.5,5.9-2.5s4.4,1.3,5.6,3.8v-12l-2.4-0.3v-0.7H93v25.9l2.4,0.3v0.7H89.6z M79.6,66.1v3.4
			c0,4.3,1.6,6.5,4.7,6.5c1.5,0,2.7-0.6,3.7-1.8c1-1.2,1.6-2.7,1.6-4.4v-3.9c0-1.7-0.6-3.2-1.6-4.4c-1-1.2-2.3-1.8-3.7-1.8
			C81.2,59.6,79.6,61.7,79.6,66.1z"/>
		<path id="XMLID_94_" d="M96.9,76.4v-0.7l2.4-0.3V60l-2.4-0.3V59h5.7v2.6c1.4-1.9,3-2.9,4.8-2.9c0.9,0,1.6,0.2,2.3,0.7
			c0.6,0.4,1,1,1,1.7c0,0.7-0.2,1.2-0.6,1.6c-0.4,0.4-0.9,0.6-1.6,0.6c-0.7,0-1.2-0.3-1.7-0.8c0.2-0.3,0.4-0.7,0.4-1
			s-0.1-0.7-0.4-0.9c-0.3-0.2-0.6-0.4-1-0.4c-0.9,0-1.9,0.9-3.1,2.7v12.6l2.7,0.3v0.7H96.9z"/>
		<path id="XMLID_91_" d="M120.8,76c0.8,0,1.6-0.1,2.3-0.4c0.7-0.2,1.3-0.6,1.9-1c1.2-0.9,1.9-2,2.2-3.4h0.8c-0.3,1.7-1.1,3-2.4,4
			c-1.3,1-2.8,1.5-4.7,1.5c-2.5,0-4.6-0.8-6.3-2.5c-1.7-1.7-2.5-3.8-2.5-6.6c0-2.6,0.8-4.8,2.5-6.5c1.6-1.7,3.7-2.5,6.1-2.5
			c2.2,0,3.9,0.7,5.3,2c1.4,1.4,2.1,3.2,2.1,5.3h-12.4v3.3c0,2,0.4,3.6,1.3,4.8C118,75.4,119.2,76,120.8,76z M120.7,59.5
			c-1.5,0-2.7,0.5-3.5,1.6c-0.8,1.1-1.3,2.5-1.4,4.2h8.6C124.4,61.4,123.1,59.5,120.7,59.5z"/>
		<path id="XMLID_88_" d="M141.7,73.1c-0.6,1.1-1.4,2-2.5,2.7c-1.1,0.7-2.4,1-3.8,1s-2.5-0.4-3.4-1.1s-1.3-1.8-1.3-3.1
			c0-1.3,0.3-2.3,0.8-3.1c0.6-0.7,1.3-1.4,2.2-1.8c1.6-0.8,3.9-1.2,6.8-1.2h1.2v-3.2c0-2.5-1.1-3.8-3.4-3.8c-1,0-1.8,0.2-2.5,0.7
			c-0.7,0.5-1,1-1,1.6c0,0.6,0.3,1,0.9,1.2c0,0.6-0.2,1.1-0.6,1.5c-0.4,0.4-0.9,0.6-1.5,0.6c-0.6,0-1.1-0.2-1.5-0.6
			s-0.6-0.9-0.6-1.5c0-0.6,0.2-1.2,0.6-1.7c0.4-0.5,0.9-1,1.5-1.4c1.3-0.8,2.8-1.2,4.7-1.2c4.5,0,6.8,1.7,6.8,5.2v10.3
			c0,1,0.4,1.5,1.2,1.5c0.8,0,1.2-0.5,1.2-1.4h0.7c0,0.8-0.3,1.4-0.8,1.8c-0.5,0.4-1.3,0.7-2.2,0.7s-1.8-0.3-2.5-0.9
			C142,75.3,141.7,74.3,141.7,73.1z M141.7,70.7v-3.5h-1.2c-1.7,0-3.2,0.4-4.4,1.2c-1.2,0.8-1.8,2.1-1.8,3.8c0,0.9,0.2,1.6,0.7,2.1
			c0.5,0.5,1.2,0.8,2.2,0.8c1,0,1.9-0.4,2.9-1.2C141,73.2,141.5,72.1,141.7,70.7z"/>
		<path id="XMLID_86_" d="M156.3,76.8c-4.5,0-6.8-1.2-6.8-3.7c0-0.6,0.2-1.2,0.6-1.7c0.4-0.5,0.9-0.7,1.4-0.7c1.1,0,1.7,0.5,2,1.4
			c-0.4,0.4-0.6,0.9-0.6,1.4c0,0.9,0.3,1.5,0.9,2c0.6,0.4,1.5,0.7,2.7,0.7c1.2,0,2.3-0.3,3.2-1c0.9-0.6,1.4-1.4,1.4-2.3
			c0-0.9-0.3-1.5-0.9-1.9c-0.6-0.4-1.6-0.9-3-1.3l-4.3-1.4c-2-0.6-3-2.1-3-4.4c0-1.5,0.6-2.7,1.7-3.7c1.2-1,2.7-1.5,4.5-1.5
			c1.9,0,3.3,0.3,4.4,1c1.1,0.6,1.6,1.5,1.6,2.5c0,0.6-0.2,1.1-0.5,1.5c-0.4,0.4-0.8,0.6-1.3,0.6s-0.9-0.1-1.2-0.4
			c-0.3-0.3-0.5-0.6-0.5-1.1c0.5-0.3,0.7-0.7,0.7-1.3c0-1.4-1-2.1-3.1-2.1c-1.5,0-2.6,0.3-3.5,0.9c-0.9,0.6-1.3,1.2-1.3,2
			c0,0.8,0.2,1.3,0.5,1.6c0.3,0.3,0.9,0.7,1.8,0.9l5.3,1.6c1.3,0.4,2.2,1,2.8,1.8c0.6,0.8,0.9,1.9,0.9,3.2s-0.5,2.6-1.6,3.7
			C159.9,76.2,158.3,76.8,156.3,76.8z"/>
	</g>
</g>
</svg>
