<?xml version="1.0" encoding="utf-8"?>
<!-- Generator: Adobe Illustrator 23.0.2, SVG Export Plug-In . SVG Version: 6.00 Build 0)  -->
<svg version="1.1" id="Layer_1" xmlns="http://www.w3.org/2000/svg" xmlns:xlink="http://www.w3.org/1999/xlink" x="0px" y="0px"
	 viewBox="0 0 596.49 480.72" style="enable-background:new 0 0 596.49 480.72;" xml:space="preserve">
<g>
	<g>
		<path d="M173.17,191.56H149h-0.71H15.66v183.75h132.62h2.59h114.49v-21.89h-92.19V191.56z M39.92,353.42v-62.29h100.82v-21.26
			H39.92v-55.79h108.36v139.35H39.92z"/>
		<polygon points="574.71,214.08 574.71,191.56 451.97,191.56 441.38,191.56 303.59,191.56 302.99,191.56 278.45,191.56 
			278.45,375.31 303.59,375.31 303.59,213.45 364.91,213.45 364.91,375.31 390.05,375.31 390.05,213.45 441.38,213.45 
			441.38,375.31 576.59,375.31 576.59,353.42 465.64,353.42 465.64,291.13 566.46,291.13 566.46,269.87 465.64,269.87 
			465.64,214.08 		"/>
	</g>
	<g>
		<polygon points="519.68,168.97 296.13,9.83 72.57,168.97 296.13,48.78 		"/>
		<polygon points="515.91,180.3 296.13,70.13 72.57,180.3 296.13,109.09 		"/>
	</g>
	<g>
		<polygon points="59.29,429.88 30.75,429.88 30.75,401.04 18.57,401.04 18.57,470.28 30.75,470.28 30.75,438.78 59.29,438.78 
			59.29,470.28 71.46,470.28 71.46,401.04 59.29,401.04 		"/>
		<path d="M100.61,401.04l-26.59,69.24h12.07l6.55-18.1h24.96l6.34,18.1h12.99l-26.7-69.24H100.61z M95.9,443.18
			c4.2-11.87,7.47-22.5,9.31-28.54c1.64,5.63,4.91,16.37,9.2,28.54H95.9z"/>
		<path d="M171.7,436.94c9-2.76,12.68-9.31,12.68-17.18c0-11.96-7.47-18.92-24.34-18.92c-5.42,0-18.51,0.2-20.56,0.2v69.24h12.17
			v-29.97h2.96c10.23,0,13.71,8.28,23.01,29.97h13.2C183.05,452.18,179.37,441.23,171.7,436.94z M159.52,431.41h-7.87v-21.89h6.85
			c10.02,0,12.99,5.73,12.99,11.76C171.49,427.94,167.1,431.41,159.52,431.41z"/>
		<path d="M214.14,400.83c-6.34,0-18,0.2-20.05,0.2v69.24c2.15,0,10.33,0.2,18.72,0.2c24.44,0,35.49-12.48,35.49-35.29
			C248.31,412.6,237.16,400.83,214.14,400.83z M214.35,461.38c-4.5,0-6.55,0-8.08-0.1v-51.24c1.23,0,3.37-0.1,6.44-0.1
			c16.37,0,22.4,10.54,22.4,26.39C235.11,452.89,228.57,461.38,214.35,461.38z"/>
		<path d="M334.02,400.83l-17.59,43.37c-1.33,3.27-2.96,7.06-4.3,10.54c-1.33-3.58-3.07-7.47-4.3-10.54l-17.49-43.37h-9.52
			l-4.09,69.45h11.45l1.03-26.8c0.1-2.66,0.31-10.02,0.41-17.08c2.56,6.96,5.52,14.52,6.85,17.59l11.56,26.29h8.59l11.46-26.59
			c1.12-2.86,3.89-10.12,6.34-16.88c0.1,6.55,0.41,13.6,0.51,16.98l1.12,26.49h11.36l-4.09-69.45H334.02z"/>
		<path d="M384.35,400.11c-20.76,0-30.27,15.04-30.27,36.41c0,21.69,8.49,34.37,28.95,34.37c20.66,0,30.18-14.53,30.18-35.8
			C413.19,413.52,404.7,400.11,384.35,400.11z M384.45,461.49c-14.11,0-17.18-12.28-17.18-26.08c0-14.63,3.78-25.88,15.65-25.88
			c14.11,0,17.19,12.78,17.19,26.59C400.1,450.64,396.31,461.49,384.45,461.49z"/>
		<path d="M462.08,437.25c0,3.17,0.31,7.88,0.62,12.27c-2.66-4.09-5.63-8.8-8.29-12.68l-24.03-36h-9.52v69.45h12.17l-0.31-36.21
			c0-4.3-0.41-9.31-0.82-13.71c2.66,4.19,6.03,9.72,8.59,13.61l23.32,36.41h10.13v-69.35h-12.17L462.08,437.25z"/>
		<polygon points="496.35,438.88 518.65,438.88 520.18,429.57 496.35,429.57 496.35,410.24 525.3,410.24 525.3,401.04 
			484.17,401.04 484.17,470.28 526.83,470.28 526.83,461.08 496.35,461.08 		"/>
		<polygon points="567.95,401.04 553.12,432.44 538.6,401.04 525.4,401.04 546.88,443.79 546.88,470.28 559.05,470.28 559.05,444.3 
			580.84,401.04 		"/>
	</g>
</g>
</svg>
