<?xml version="1.0" encoding="utf-8"?>
<!-- Generator: Adobe Illustrator 20.1.0, SVG Export Plug-In . SVG Version: 6.00 Build 0)  -->
<svg version="1.1" id="Layer_2" xmlns="http://www.w3.org/2000/svg" xmlns:xlink="http://www.w3.org/1999/xlink" x="0px" y="0px"
	 viewBox="0 0 1041.8 401.2" style="enable-background:new 0 0 1041.8 401.2;" xml:space="preserve">
<style type="text/css">
	.st0{fill:#004C83;}
	.st1{fill:#008CC1;}
</style>
<g>
	<g>
		<path class="st0" d="M186,228.5h-56l-3.8,9.4c-5.7,13.6-8.5,22.4-8.5,26.5c0,4.4,1.5,7.8,4.5,10.1c3,2.3,6.9,3.4,11.6,3.4v5H90v-5
			c6.5-1,11.4-3.3,14.6-6.9c3.2-3.6,7-11.1,11.5-22.7c0.4-1.1,2.1-5.3,5.2-12.6l42.8-102.3h4.2l49.3,117.1l6.7,15.4
			c1.5,3.5,3.6,6.2,6.1,8.2c2.6,2,6.4,3.2,11.6,3.8v5h-58v-5c7.1,0,11.9-0.5,14.4-1.6c2.5-1,3.8-3.1,3.8-6.3c0-1.6-1.7-6.3-5-14.2
			L186,228.5z M184.2,223.6l-26.1-62.9l-26,62.9H184.2z"/>
		<path class="st0" d="M333.3,193.8v58.4c0,9.7,0.1,15.8,0.4,18.3c0.3,2.5,1.4,4.3,3.2,5.5c1.8,1.2,5.2,1.8,10,1.8v5
			c-11,0.1-19.1,1.3-24.1,3.5h-1.3c-2.3-4-3.6-10.9-3.7-20.7c-4.4,6.9-9.5,12.1-15.2,15.6c-5.7,3.5-12,5.2-18.9,5.2
			c-5.9,0-11.2-1.4-15.8-4.1c-4.6-2.7-7.7-6-9.4-10c-1.7-3.9-2.6-9.8-2.6-17.7v-30.3c0-10.3-0.2-16.6-0.5-18.9
			c-0.4-2.3-1.5-4-3.4-5.1c-1.9-1.1-5.5-1.6-10.6-1.6v-5h30.2v61.8c0,6.1,0.4,10.5,1.1,13.3c0.7,2.8,2.6,5.2,5.5,7.2
			c3,2.1,6.4,3.1,10.3,3.1c5.6,0,10.9-1.8,16-5.5c5.1-3.7,8.5-7.5,10.4-11.6c1.8-4.1,2.8-10,2.8-17.6v-20.1c0-9.7-0.1-15.6-0.3-17.7
			c-0.2-2.1-1.1-3.9-2.8-5.5c-1.6-1.6-5-2.3-10.2-2.3h-2.3v-5H333.3z"/>
		<path class="st0" d="M436.1,203.3v-34.8c0-9.5-0.1-15.5-0.4-17.9c-0.3-2.5-1.3-4.3-3.1-5.7c-1.8-1.3-5-2-9.7-2h-2.3v-5
			c8.8-0.2,18.4-1.7,28.8-4.6h2.3v119.7c0,10.4,0.2,16.7,0.5,18.9c0.4,2.2,1.5,3.9,3.4,5c1.9,1.1,5.5,1.6,10.7,1.6v5
			c-10.5,0.2-19.9,1.2-28.1,2.8c-0.9-3.4-1.3-8.8-1.3-16.1c-5.4,5.4-10.9,9.4-16.6,12.1c-5.7,2.7-11.6,4-17.7,4
			c-11.5,0-21.5-4.6-29.9-13.9c-8.4-9.3-12.6-20.5-12.6-33.7c0-14.5,4.3-26.2,12.8-35.2c8.6-9,18.7-13.4,30.6-13.4
			c6,0,11.7,1.1,17.1,3.3C426.3,195.7,431.4,198.9,436.1,203.3z M436.1,209.6c-4.8-4.1-9.6-7.2-14.4-9.3c-4.8-2.1-9.7-3.1-14.5-3.1
			c-8.2,0-15,3.2-20.5,9.5c-5.5,6.3-8.2,16.6-8.2,30.9c0,14.5,2.8,25.2,8.4,32.1c5.6,6.9,12.6,10.3,20.8,10.3
			c5.5,0,10.6-1.3,15.3-3.9c4.7-2.6,9.1-6.5,13-11.7V209.6z"/>
		<path class="st0" d="M565.3,193.8v58.4c0,9.7,0.1,15.8,0.4,18.3c0.3,2.5,1.4,4.3,3.2,5.5c1.8,1.2,5.2,1.8,10,1.8v5
			c-11,0.1-19.1,1.3-24.1,3.5h-1.3c-2.3-4-3.6-10.9-3.7-20.7c-4.4,6.9-9.5,12.1-15.2,15.6c-5.7,3.5-12,5.2-18.9,5.2
			c-5.9,0-11.2-1.4-15.8-4.1c-4.6-2.7-7.7-6-9.4-10c-1.7-3.9-2.6-9.8-2.6-17.7v-30.3c0-10.3-0.2-16.6-0.5-18.9
			c-0.4-2.3-1.5-4-3.4-5.1c-1.9-1.1-5.5-1.6-10.6-1.6v-5h30.2v61.8c0,6.1,0.4,10.5,1.1,13.3c0.7,2.8,2.6,5.2,5.5,7.2
			c3,2.1,6.4,3.1,10.3,3.1c5.6,0,10.9-1.8,16-5.5c5.1-3.7,8.5-7.5,10.4-11.6c1.8-4.1,2.8-10,2.8-17.6v-20.1c0-9.7-0.1-15.6-0.3-17.7
			c-0.2-2.1-1.1-3.9-2.8-5.5c-1.6-1.6-5-2.3-10.2-2.3h-2.3v-5H565.3z"/>
		<path class="st0" d="M606,286.5h-4.2V167.3c0-8.7-0.2-14.3-0.7-16.9c-0.5-2.5-1.7-4.4-3.6-5.7c-1.9-1.2-5.3-1.8-10.1-1.8v-5
			c4.3,0,9.4-0.5,15.4-1.5c6-1,10.1-2,12.3-3h2.3v70.5c5.1-4.6,10.2-8,15.4-10.2c5.2-2.2,10.5-3.4,15.9-3.4
			c12.8,0,23.3,4.5,31.5,13.4c8.2,8.9,12.3,20.3,12.3,34.1c0,13.9-4.2,25.5-12.6,34.8c-8.4,9.3-19.3,13.9-32.7,13.9
			c-6.6,0-12.4-1.4-17.3-4.1c-5-2.8-9.1-6.9-12.5-12.3C612.7,274.8,608.9,280.2,606,286.5z M617.4,210.2v34.9c0,9,0.6,15.5,1.8,19.4
			c1.2,4,4.1,7.7,8.6,11.4c4.6,3.6,9.9,5.4,16,5.4c9.4,0,16.8-3.8,22.3-11.5c5.5-7.7,8.3-18.7,8.3-33.2c0-13.3-2.6-23.4-7.8-30.3
			c-5.2-6.9-12.1-10.4-20.7-10.4c-4.9,0-9.8,1.2-14.5,3.5C626.8,201.9,622.1,205.5,617.4,210.2z"/>
		<path class="st0" d="M708.9,238.2c0-13.6,4.6-25,13.7-34.2c9.1-9.2,20.4-13.8,33.7-13.8c13.4,0,24.7,4.6,33.8,13.8
			c9.1,9.2,13.7,20.6,13.7,34.1c0,15-4.6,26.8-13.9,35.4c-9.3,8.6-20.5,12.9-33.6,12.9c-13.1,0-24.3-4.4-33.5-13.1
			C713.5,264.6,708.9,252.9,708.9,238.2z M726.9,238.7c0,15.8,2.6,26.9,7.7,33.2c5.1,6.3,12.4,9.5,21.6,9.5c9.5,0,16.8-3.2,21.8-9.5
			c5-6.3,7.6-17.4,7.6-33.2c0-15.7-2.5-26.8-7.5-33.5c-5-6.7-12.3-10-21.9-10c-9.5,0-16.8,3.3-21.8,9.9
			C729.5,211.8,726.9,223,726.9,238.7z"/>
		<path class="st0" d="M842.6,190.2h2.9c1.7,4.5,2.6,10.6,2.8,18.4c5.2-6.2,10.7-10.8,16.4-13.8c5.7-3,11.7-4.6,17.9-4.6
			c7.1,0,12.9,1.5,17.5,4.5c4.5,3,7.4,6.6,8.8,10.9c1.3,4.3,2,10.6,2,18.9v27.8c0,10.3,0.2,16.6,0.5,18.8c0.4,2.2,1.5,3.9,3.4,5.1
			c1.9,1.1,5.5,1.7,10.6,1.7v5h-45.6v-5h2.1c5.2,0,8.6-0.8,10.2-2.3c1.6-1.5,2.5-3.3,2.7-5.3c0.2-2,0.3-8,0.3-17.9v-28.7
			c0-7-0.3-12.1-1-15.1c-0.7-3-2.5-5.7-5.5-8c-3-2.3-6.8-3.5-11.5-3.5c-5.3,0-10.3,1.6-15.2,4.7c-4.8,3.2-9.4,7.9-13.6,14.2v36.3
			c0,10.3,0.2,16.6,0.6,18.8c0.4,2.2,1.6,3.9,3.5,5.1c1.9,1.1,5.5,1.7,10.7,1.7v5h-45v-5c5,0,8.5-0.5,10.4-1.5c2-1,3.2-2.6,3.6-4.6
			c0.5-2.1,0.7-8.5,0.7-19.4v-26.5c0-10.4-0.2-16.7-0.6-18.9c-0.4-2.2-1.6-3.9-3.5-5c-1.9-1.1-5.5-1.7-10.7-1.7v-5
			C826.1,194.4,834.3,192.7,842.6,190.2z"/>
	</g>
	<path class="st1" d="M755.2,155.3c0.1-0.3,4.9-6.8,11.2-7.6c6.2-0.8,8.8,1,9.6,2.3c0,0,3.8,0.7,5.5,3c0,0-4.5-0.1-4.9,1.2
		c-0.2,0.7,0.2,7-1.4,9.2c0,0,1.6,6.3-6.3,13.5c-8,7.2-21,6.8-21.9,6.6l9,6.6l6.2-0.6c1.3-0.8,1.8,0,1.8,0s1-0.5,2,0.2
		c1,0.7,1,1.5,1,1.5s-1.3-1.2-2.3-0.9c0,0,0.2,0.3-0.1,0.9c0,0-0.7-1.4-1.6-1.1c-1,0.3-1.2,1-2,1.1c-0.7,0.2-8.8-0.3-10.7,0
		s-2-1-2-1s-1.3-0.5-2.5,0.5c0,0,0.3-1.7,2.8-1.2c2.5,0.5,5.9,0.7,5.9,0.7s-8-5.2-9.6-7.3c0,0-8-3.7-9.6-6.8c0,0-10-2.4-14.5-5.5
		c0,0-6.8-0.9-11.4-0.1s-11.3,1-11.7,0.2c-0.4-0.9,0.3-1.1,0.3-1.1s-1.8,0.2-1.6-0.5c0.2-0.7,1.6-1.2,2.4-1.1
		c0.7,0,21.6-0.8,21.6-0.8s-0.7-1.5,5.4-1.2c0,0,0.7-1.7,4.3-1.8c0,0,1.2-1.6,10.7-3.2S755.2,155.3,755.2,155.3z"/>
</g>
</svg>
