<?xml version="1.0" encoding="utf-8"?>
<!-- Generator: Adobe Illustrator 20.1.0, SVG Export Plug-In . SVG Version: 6.00 Build 0)  -->
<svg version="1.1" id="Layer_1" xmlns="http://www.w3.org/2000/svg" xmlns:xlink="http://www.w3.org/1999/xlink" x="0px" y="0px"
	 viewBox="0 0 281.3 135.7" style="enable-background:new 0 0 281.3 135.7;" xml:space="preserve">
<style type="text/css">
	.st0{fill:none;}
	.st1{fill:#D0DD28;}
	.st2{fill:#006838;}
	.st3{fill:#FFFFFF;}
</style>
<g id="XMLID_14_">
	<path id="XMLID_93_" class="st0" d="M22.2,33.7h6c6.1,0.2,11.9-1,11.9-10.5c0-3.9-1.4-7.6-4.5-9c-2.2-0.9-6.2-0.9-8.5-0.9
		c-1.4,0-5.1,0-6,1.7c-0.4,0.8-0.4,4.3-0.4,5.4v11.6C20.7,33.3,21.3,33.6,22.2,33.7z"/>
	<path id="XMLID_92_" class="st0" d="M62.1,30.4c0,2.1,1.8,1.6,3,1.6h4.1c2.7,0,6.2-0.1,8.7-1.7c2.3-1.5,3.2-4.9,3.2-8.1
		c0-7.5-4.3-9.5-9.4-9.5c-2.1,0-5.8,0.2-7.8,1.2c-2.1,1-1.8,3.1-1.8,5.6v9.5L62.1,30.4z"/>
	<path id="XMLID_91_" class="st1" d="M101.6,129.5L101.6,129.5C101.6,129.5,101.6,129.5,101.6,129.5L101.6,129.5z"/>
	<path id="XMLID_86_" class="st1" d="M137.8,73c-0.3,0.2-0.7,0.3-1.1,0.3c-1.3,0-2.4-1.2-2.4-2.6c0-1.5,1.1-2.6,2.4-2.6
		c0.6,0,1.1,0.2,1.5,0.6l0.3-3.6l-17.6,0.6l-5,36.9L105.3,77l-10.9,2c4.3,5.8,7,13.5,7,21.9c0,11.4-4.8,21.5-12.1,27.2l0.3,1.5
		l10-0.2c-0.9-0.3-1.5-1.1-1.5-1.9c0-1.2,1.1-2.1,2.4-2.1c0.6,0,1.1,0.2,1.6,0.5l2.4-17l6.9,19.8l21.3-0.4L137.8,73z M102.3,85
		c-1.2,0-2.2-1.1-2.2-2.4c0-1.3,1-2.4,2.2-2.4c1.2,0,2.2,1.1,2.2,2.4C104.5,83.9,103.5,85,102.3,85z M123.3,91.8
		c-1.3,0-2.3-1-2.3-2.3c0-1.3,1-2.3,2.3-2.3c1.3,0,2.3,1,2.3,2.3C125.6,90.8,124.6,91.8,123.3,91.8z M127.8,125.3
		c-1.5,0-2.6-0.6-2.6-1.3c0-0.7,1.2-1.3,2.6-1.3c1.5,0,2.6,0.6,2.6,1.3C130.5,124.7,129.3,125.3,127.8,125.3z"/>
	<path id="XMLID_85_" class="st2" d="M134.2,70.7c0,1.5,1.1,2.6,2.4,2.6c0.4,0,0.8-0.1,1.1-0.3l0.4-4.3c-0.4-0.4-0.9-0.6-1.5-0.6
		C135.3,68.1,134.2,69.2,134.2,70.7z"/>
	<path id="XMLID_80_" class="st1" d="M177.6,105.9c-1.2,0-2.2-1-2.2-2.3c0-1.3,1-2.3,2.2-2.3c0.8,0,1.5,0.5,1.9,1.1
		c-0.2-2.8-0.9-4.5-0.9-4.6c-5.7-11-15.6-7.7-22.1-5.5c-3.2,1.1-5.3,1.8-6.6,0.7c-1-0.8-0.7-2.2-0.7-2.6l0-0.1
		c1.2-4.7,5.1-8,11.4-9.5c3.2-0.8,6.2-0.9,7.8-0.9l-1.2-12.3c-12.5-3.4-23.2,1.5-26.3,3.1v0c-0.4,0.3-0.8,0.5-1.1,0.6l-3.2,35.5
		c1,0.7,5.4-0.1,8.4-0.6c5-0.9,9.7-1.8,11.8,0.1c0.5,0.5,1.1,1.3,1.1,2.8l0,0.2l-0.1,0.2c-2.5,5.4-10.6,7.7-16.5,9.4
		c-2.5,0.7-5.1,1.5-6,2.2l-0.8,9.2l-2.6,0.1c0.8,1.5,2.2,4.1,2.9,5.3c16-3.6,36-10.7,42.6-23.8c1.3-2.6,1.8-5,2-7.1
		C179.1,105.5,178.4,105.9,177.6,105.9z M161.3,71.6c1.3,0,2.4,0.9,2.4,2c0,1.1-1.1,2-2.4,2c-1.3,0-2.4-0.9-2.4-2
		C158.9,72.5,160,71.6,161.3,71.6z M139.6,102.8c-0.9,0-1.7-1-1.7-2.3c0-1.3,0.7-2.3,1.7-2.3s1.7,1,1.7,2.3
		C141.3,101.8,140.5,102.8,139.6,102.8z M149.5,119.6c-1,0-1.9-0.7-1.9-1.5c0-0.9,0.8-1.5,1.9-1.5c1,0,1.9,0.7,1.9,1.5
		C151.4,118.9,150.6,119.6,149.5,119.6z"/>
	<path id="XMLID_77_" class="st1" d="M197.8,92.2c0-1.3,0.9-2.3,2-2.3c0.4,0,0.7,0.1,1,0.3l0.1-3.7l14.5-2l0.2-17.5L194,67.4
		c0.5,0.3,0.8,0.7,0.8,1.1c0,0.9-1.1,1.5-2.5,1.5c-1.4,0-2.5-0.7-2.5-1.5c0-0.4,0.3-0.8,0.7-1l-21.1,0.4l1.3,14.2l-1.1-0.1
		c-0.1,0-2.2-0.1-5.1,0.3c0,0,0,0.1,0,0.1l1.3-0.2l0.9,5.3l17.3-1.1l-0.2,42.3l3.5-0.3c-1.1-0.2-2-1-2-1.9c0-1.1,1.2-2,2.8-2
		c1.5,0,2.8,0.9,2.8,2c0,0.8-0.6,1.4-1.5,1.7l10.9-0.8l0.5-33.2c-0.3,0.2-0.6,0.3-1,0.3C198.7,94.5,197.8,93.4,197.8,92.2z
		 M179,82.8c-1,0-1.9-0.7-1.9-1.7c0-0.9,0.8-1.7,1.9-1.7c1,0,1.9,0.7,1.9,1.7C180.9,82.1,180.1,82.8,179,82.8z"/>
	<path id="XMLID_74_" class="st1" d="M236.2,120c-1.5,0-2.8-1-2.8-2.2c0-1.2,1.2-2.2,2.8-2.2s2.8,1,2.8,2.2c0,0.7-0.4,1.3-1,1.7
		l10.6-4.7l-4.2-8.2l-14.1,4.9l-3.3-15.2l10.6-3.9l-2.3-5.5l-10.3,3.4l-1.3-5.8l11.7-5.6c-1.2-0.2-2-1.2-2-2.4
		c0-1.3,1.2-2.4,2.6-2.4c0.5,0,1,0.1,1.4,0.4l-2.5-7.3l-17.2,6.1l-0.1,12.9l-12.5,1.7l13,40.5l19.2-8.6
		C236.9,120,236.6,120,236.2,120z M214.1,102c-1.3,0-2.4-1-2.4-2.3c0-1.3,1.1-2.3,2.4-2.3c1.3,0,2.4,1,2.4,2.3
		C216.5,100.9,215.5,102,214.1,102z"/>
	<path id="XMLID_70_" class="st1" d="M275.5,71.2c-0.1,0.8-1.1,1.5-2.3,1.5c-1.3,0-2.3-0.7-2.3-1.6c0-0.4,0.2-0.7,0.5-1
		c-5.7-1.2-10.3-0.8-13.9,1.1c-4.8,2.6-5.9,7.1-5.9,7.1l-0.8,3.6l-3.5-11.3l-8.8,1.1l2.4,6.9l-3.3,1.6l0.4,7.8l-0.1,0l2.4,5.7
		l-2.1,0.8l0.4,12.1l6.8-2.4l5.9,11.6l-11.8,5.3l1.2,10l19.6,0.6c-6.8-24.2-6.4-39.9,1-46.7c5.4-4.9,12.8-3.5,15.7-2.7l0.9-10.3
		C277.1,71.7,276.3,71.4,275.5,71.2z M250.9,88.1c-1.2,0-2.2-1.1-2.2-2.5c0-1.4,1-2.5,2.2-2.5c1.2,0,2.2,1.1,2.2,2.5
		C253.1,87,252.1,88.1,250.9,88.1z M252.6,127.7c-1.3,0-2.4-0.9-2.4-2c0-1.1,1.1-2,2.4-2c1.3,0,2.4,0.9,2.4,2
		C255.1,126.8,254,127.7,252.6,127.7z"/>
	<ellipse id="XMLID_69_" class="st2" cx="56.2" cy="93.5" rx="1.4" ry="2.1"/>
	<ellipse id="XMLID_68_" class="st2" cx="82.6" cy="75.1" rx="1.4" ry="1.3"/>
	<ellipse id="XMLID_67_" class="st2" cx="91.3" cy="119.5" rx="1.8" ry="1.2"/>
	<ellipse id="XMLID_66_" class="st2" cx="102.3" cy="82.6" rx="2.2" ry="2.4"/>
	<path id="XMLID_65_" class="st2" d="M98.1,127.6c0,0.9,0.6,1.6,1.5,1.9l2,0c0,0,0,0,0,0l0.5-3.5c-0.4-0.3-1-0.5-1.6-0.5
		C99.2,125.5,98.1,126.5,98.1,127.6z"/>
	<circle id="XMLID_64_" class="st2" cx="123.3" cy="89.5" r="2.3"/>
	<ellipse id="XMLID_63_" class="st2" cx="127.8" cy="124" rx="2.6" ry="1.3"/>
	<ellipse id="XMLID_62_" class="st2" cx="139.6" cy="100.5" rx="1.7" ry="2.3"/>
	<ellipse id="XMLID_61_" class="st2" cx="161.3" cy="73.6" rx="2.4" ry="2"/>
	<path id="XMLID_60_" class="st2" d="M179.5,102.4c-0.4-0.7-1.1-1.1-1.9-1.1c-1.2,0-2.2,1-2.2,2.3c0,1.3,1,2.3,2.2,2.3
		c0.8,0,1.5-0.4,1.9-1.1C179.5,104,179.5,103.2,179.5,102.4z"/>
	<ellipse id="XMLID_59_" class="st2" cx="149.5" cy="118" rx="1.9" ry="1.5"/>
	<ellipse id="XMLID_58_" class="st2" cx="179" cy="81.2" rx="1.9" ry="1.7"/>
	<path id="XMLID_57_" class="st2" d="M189.7,68.5c0,0.9,1.1,1.5,2.5,1.5c1.4,0,2.5-0.7,2.5-1.5c0-0.4-0.3-0.8-0.8-1.1l-3.6,0.1
		C190,67.7,189.7,68.1,189.7,68.5z"/>
	<path id="XMLID_56_" class="st2" d="M199.8,89.9c-1.1,0-2,1-2,2.3c0,1.3,0.9,2.3,2,2.3c0.4,0,0.7-0.1,1-0.3l0.1-4
		C200.6,90,200.2,89.9,199.8,89.9z"/>
	<g id="XMLID_54_">
		<path id="XMLID_55_" class="st2" d="M188,124.4c-1.5,0-2.8,0.9-2.8,2c0,0.9,0.8,1.6,2,1.9l2.1-0.1c0.9-0.3,1.5-1,1.5-1.7
			C190.8,125.3,189.6,124.4,188,124.4z"/>
	</g>
	<ellipse id="XMLID_53_" class="st2" cx="214.1" cy="99.7" rx="2.4" ry="2.3"/>
	<path id="XMLID_52_" class="st2" d="M233.3,76.7c0,1.1,0.9,2.1,2,2.4l3-1.4l-1-3c-0.4-0.2-0.9-0.4-1.4-0.4
		C234.5,74.2,233.3,75.3,233.3,76.7z"/>
	<path id="XMLID_51_" class="st2" d="M238,119.5l-0.8,0.4C237.5,119.8,237.7,119.7,238,119.5z"/>
	<path id="XMLID_50_" class="st2" d="M239,117.8c0-1.2-1.2-2.2-2.8-2.2s-2.8,1-2.8,2.2c0,1.2,1.2,2.2,2.8,2.2c0.3,0,0.6-0.1,0.9-0.1
		l0.8-0.4C238.6,119.1,239,118.5,239,117.8z"/>
	<ellipse id="XMLID_49_" class="st2" cx="250.9" cy="85.6" rx="2.2" ry="2.5"/>
	<path id="XMLID_48_" class="st2" d="M270.9,71c0,0.9,1,1.6,2.3,1.6c1.2,0,2.2-0.7,2.3-1.5c-1.4-0.4-2.8-0.8-4.1-1.1
		C271.1,70.3,270.9,70.7,270.9,71z"/>
	<ellipse id="XMLID_47_" class="st2" cx="252.6" cy="125.7" rx="2.4" ry="2"/>
	<path id="XMLID_44_" d="M11.9,57.8c-1,0-2-0.4-3-0.4c-1.2,0-2,1.2-2,2.7C6.9,62,8.2,63,9.5,63c1.7,0,5.2-0.9,8.4-0.9
		c3.2,0,6.7,0.9,8.4,0.9c1.4,0,2.8-0.9,2.8-2.8c0-1.5-0.8-2.7-2-2.7c-1,0-2,0.4-3,0.4c-1.6,0-2.7-0.9-3.1-2.9
		c-0.4-2.3-0.3-7.2-0.3-9.8v-4.3c0-1.5,0.5-1.7,1.6-1.7h3.6c4.4,0,9.6,0.2,13.6-2.3c4.1-2.6,6.4-7.6,6.4-13.4c0-5.4-1.7-10-5.5-12.8
		C37.3,8.4,33.2,8,29.7,8.1c-1.9,0.1-6.3,0.7-11.6,0.9c-3-0.3-6.3-0.5-8.2-0.9c-1.7,0-3,0.9-3,2.8c0,1.5,0.8,2.7,2,2.7
		c1,0,2-0.4,3-0.4c1.6,0,2.7,0.9,3.1,2.9c0.4,2.3,0.3,7.2,0.3,9.8v19.3c0,2.5,0.1,7.5-0.3,9.8C14.6,57,13.5,57.8,11.9,57.8z
		 M20.7,20.4c0-1.1,0-4.6,0.4-5.4c0.9-1.7,4.6-1.7,6-1.7c2.4,0,6.3,0,8.5,0.9c3,1.3,4.5,5.1,4.5,9c0,9.4-5.8,10.7-11.9,10.5h-6
		c-0.9-0.1-1.5-0.4-1.5-1.7V20.4z"/>
	<path id="XMLID_41_" d="M53.4,57.8c-1,0-2-0.4-3-0.4c-1.2,0-2,1.2-2,2.7c0,1.9,1.3,2.8,2.7,2.8c1.7,0,5.2-0.9,8.4-0.9
		c3.2,0,6.7,0.9,8.4,0.9c1.4,0,2.7-0.9,2.7-2.8c0-1.5-0.8-2.7-2-2.7c-1,0-2,0.4-3,0.4c-1.6,0-2.7-0.9-3.1-2.9
		c-0.4-2.3-0.3-7.2-0.3-9.8v-4c0-3.2,1.7-3.8,6-3.8c2.7,0.1,6.4-0.4,8.7,1.4c2.4,1.8,2.3,5.3,2.3,8.4v4.9c0,5.7,1.3,10.6,6.5,10.6h3
		c0.9,0,1.8,0.2,2.6,0.2c1.4,0,2.4-1.4,2.4-3.1c0-1.8-1.1-2.8-2.5-2.8c-0.9,0-1.9,0.2-2.9,0.2c-3.5,0-3.6-2.1-3.6-5.7v-3.8
		c0-7.5-1.1-12-7.6-13.1c6-1.3,9.8-4.8,9.8-13.1c0-4.4-1.6-8.7-4.6-11.1c-2.6-2-6.5-2.7-9.6-2.4c-1.9,0.1-6.3,0.7-11.6,0.9
		c-3-0.3-6.3-0.5-10.1-0.9c-1.4,0-2.7,0.9-2.7,2.8c0,1.5,0.8,2.7,2,2.7c1,0,2-0.4,3-0.4c1.6,0,2.7,0.9,3.1,2.9
		c0.4,2.3,0.3,7.2,0.3,9.8v19.3c0,2.5,0.1,7.5-0.3,9.8C56.1,57,55,57.8,53.4,57.8z M63.9,13.8c1.9-0.9,5.7-1.2,7.8-1.2
		c5.1,0,9.4,2,9.4,9.5c0,3.2-0.9,6.6-3.2,8.1c-2.5,1.6-6,1.7-8.7,1.7h-4.1c-1.3,0-3,0.6-3-1.6l0.1-1.4v-9.5
		C62.2,16.9,61.8,14.9,63.9,13.8z"/>
	<path id="XMLID_40_" d="M99.9,57.8c-1,0-2-0.4-3-0.4c-1.2,0-2,1.2-2,2.7c0,1.9,1.3,2.8,2.7,2.8c1.7,0,5.2-0.9,8.4-0.9
		c3.2,0,6.7,0.9,8.4,0.9c1.4,0,2.7-0.9,2.7-2.8c0-1.5-0.8-2.7-2-2.7c-1,0-2,0.4-3,0.4c-1.6,0-2.7-0.9-3.1-2.9
		c-0.4-2.3-0.3-7.2-0.3-9.8V25.9c0-2.5-0.1-7.5,0.3-9.8c0.4-2,1.4-2.9,3.1-2.9c1,0,2,0.4,3,0.4c1.2,0,2-1.2,2-2.7
		c0-1.9-1.3-2.8-2.7-2.8c-1.7,0-5.2,0.9-8.4,0.9c-3.2,0-6.7-0.9-8.4-0.9c-1.4,0-2.7,0.9-2.7,2.8c0,1.5,0.8,2.7,2,2.7
		c1,0,2-0.4,3-0.4c1.6,0,2.7,0.9,3.1,2.9c0.4,2.3,0.3,7.2,0.3,9.8v19.3c0,2.5,0.1,7.5-0.3,9.8C102.6,57,101.5,57.8,99.9,57.8z"/>
	<path id="XMLID_39_" d="M123.8,57.8c-1,0-2-0.4-3-0.4c-1.2,0-2,1.2-2,2.7c0,1.9,1.3,2.8,3.3,2.8c0.9,0,4.5-0.9,7.7-0.9
		c3.2,0,6.7,0.9,8,0.9c1.9,0,3.3-0.9,3.3-2.8c0-1.5-0.8-2.7-2-2.7c-1,0-2,0.4-3,0.4c-1.6,0-2.7-0.9-3.1-2.9
		c-0.4-2.3-0.3-7.2-0.3-9.8V14.4l15.1,42.8c1.1,3.5,2.5,6.9,5.7,6.9c4.7,0,4.8-6.9,4.8-11.1V25.9c0-2.5-0.1-7.5,0.3-9.8
		c0.4-2,1.4-2.9,3.1-2.9c1,0,2,0.4,3,0.4c1.2,0,2-1.2,2-2.7c0-1.9-1.3-2.8-2.1-2.8c-1.7,0-5.2,0.9-8.4,0.9c-3.2,0-6.7-0.9-8.4-0.9
		c-1.9,0-3.3,0.9-3.3,2.8c0,1.5,0.8,2.7,2,2.7c1,0,2-0.4,3-0.4c1.6,0,2.7,0.9,3.1,2.9c0.4,2.3,0.3,7.2,0.3,9.8v31l-15.5-44
		c-0.8-2.4-1.2-4.6-3.6-4.8c-1.2,0-3.6,0.9-5.9,0.9c-2.3,0-4.7-0.9-5.7-0.9c-1.9,0-3.3,0.9-3.3,2.8c0,1.5,0.8,2.7,2,2.7
		c1,0,2-0.4,3-0.4c1.6,0,2.7,0.9,3.1,2.9c0.4,2.3,0.3,7.2,0.3,9.8v19.3c0,2.5,0.1,7.5-0.3,9.8C126.5,57,125.4,57.8,123.8,57.8z"/>
	<path id="XMLID_38_" d="M167,20.5c0,2.7-0.5,5.2-0.5,7.8c0,1.7,1,3,2.4,3c2.3,0.3,2.5-2.4,2.5-4.7l-0.2-3.5l-0.2-3.9
		c0-5.5,1.9-6.1,5.8-6.1c1.7,0,3.7-0.1,4.8,2c0.9,1.7,0.8,5.6,0.8,7.7v22.4c0,2.5,0.1,7.5-0.3,9.8c-0.4,2-1.4,2.9-3.1,2.9
		c-1,0-2-0.4-3-0.4c-1.2,0-2,1.2-2,2.7c0,1.9,1.3,2.8,2.8,2.8c1.7,0,5.2-0.9,8.4-0.9c3.2,0,6.7,0.9,8.4,0.9c1.3,0,2.6-0.9,2.6-2.8
		c0-1.5-0.8-2.7-2-2.7c-1,0-2,0.4-3,0.4c-1.6,0-2.7-0.9-3.1-2.9c-0.4-2.3-0.3-7.2-0.3-9.8V19.5c0-2,0.2-4.3,1.7-5.4
		c1.3-1,2.7-0.9,4.2-0.9c3.5,0,5.9,0.6,5.9,5.6c0,2.3-0.2,4.6-0.4,6.9v1.9c0,2.2,0.3,4,2.5,3.9c1.4,0,2.4-1.3,2.4-3
		c0-2.6-0.5-5.1-0.5-7.8c0-2.9,0.5-5.7,0.5-8.7c0-2.8-1.2-3.8-2.6-3.8c-4.5,0.4-9.4,0.6-15.8,0.9c-6.3-0.3-11.2-0.5-15.8-0.9
		c-2.2,0-3.4,0.9-3.4,3.8C166.5,14.8,167,17.6,167,20.5z"/>
	<g id="XMLID_26_">
		<path id="XMLID_32_" class="st1" d="M50.3,101c0-11.4,4.8-21.4,12.1-27.2c0-1.3-0.1-3.7-0.2-5.3H48.4L40,87.6
			c0.4-0.4,0.9-0.6,1.5-0.6c1.2,0,2.2,1,2.2,2.2c0,1.2-1,2.2-2.2,2.2c-1.2,0-2.2-1-2.2-2.2c0,0,0,0,0,0l-2.5,5.7L21.8,69.2L7.5,68.6
			l-0.6,59.7l13.3,0.8l3.9-17l5.9,17.3l10.6,0.2l4.7-17.5l5.5,17.1c4.1,0.3,8.5,0.6,10.1,0.7l0.5-2.3
			C54.7,121.6,50.3,111.9,50.3,101z M56.4,70c1.3,0,2.4,0.7,2.4,1.5c0,0.9-1.1,1.5-2.4,1.5c-1.3,0-2.4-0.7-2.4-1.5
			C54,70.7,55.1,70,56.4,70z M14.6,91.8c-1.5,0-2.6-1.2-2.6-2.6c0-1.5,1.2-2.6,2.6-2.6c1.5,0,2.6,1.2,2.6,2.6
			C17.2,90.7,16.1,91.8,14.6,91.8z M35.8,118.5c-1.3,0-2.3-0.9-2.3-2.1c0-1.2,1-2.1,2.3-2.1c1.3,0,2.3,0.9,2.3,2.1
			C38.2,117.5,37.1,118.5,35.8,118.5z M39.7,97.9c-0.3,0-0.5-0.3-0.5-0.6c0-0.3,0.2-0.6,0.5-0.6s0.5,0.3,0.5,0.6
			C40.2,97.7,40,97.9,39.7,97.9z"/>
		<circle id="XMLID_31_" class="st2" cx="14.6" cy="89.2" r="2.6"/>
		<ellipse id="XMLID_30_" class="st2" cx="35.8" cy="116.4" rx="2.3" ry="2.1"/>
		<path id="XMLID_29_" class="st2" d="M41.5,91.4c1.2,0,2.2-1,2.2-2.2c0-1.2-1-2.2-2.2-2.2c-0.6,0-1.1,0.2-1.5,0.6l-0.7,1.6
			c0,0,0,0,0,0C39.3,90.4,40.2,91.4,41.5,91.4z"/>
		<ellipse id="XMLID_28_" class="st2" cx="56.4" cy="71.6" rx="2.4" ry="1.5"/>
		<ellipse id="XMLID_27_" class="st1" cx="39.7" cy="97.3" rx="0.5" ry="0.6"/>
	</g>
	<path id="XMLID_21_" class="st1" d="M75.7,70.8c-4.4,0-8.5,1.5-12,4c0,0,0,0,0,0h-0.1c-7.2,5.2-12.1,15-12.1,26.2
		c0,16.7,10.8,30.3,24.1,30.3c4.3,0,8.3-1.4,11.8-3.9l0,0l0,0c7.3-5.2,12.3-15.1,12.3-26.4C99.8,84.4,89,70.8,75.7,70.8z M83,73.9
		c0.8,0,1.4,0.6,1.4,1.3c0,0.7-0.6,1.3-1.4,1.3c-0.8,0-1.4-0.6-1.4-1.3C81.6,74.5,82.2,73.9,83,73.9z M56.6,95.7
		c-0.8,0-1.4-0.9-1.4-2.1c0-1.2,0.6-2.1,1.4-2.1c0.8,0,1.4,0.9,1.4,2.1C58,94.8,57.4,95.7,56.6,95.7z M91.7,120.8
		c-1,0-1.8-0.5-1.8-1.2c0-0.7,0.8-1.2,1.8-1.2c1,0,1.8,0.5,1.8,1.2C93.4,120.2,92.7,120.8,91.7,120.8z"/>
	<ellipse id="XMLID_20_" class="st3" cx="75.7" cy="101.6" rx="17.3" ry="21.8"/>
	<g id="XMLID_16_">
		<ellipse id="XMLID_19_" class="st2" cx="75.7" cy="101.1" rx="12.6" ry="17.7"/>
		<ellipse id="XMLID_18_" cx="75.7" cy="101.1" rx="5.5" ry="7.6"/>
		<ellipse id="XMLID_17_" class="st3" cx="81.2" cy="92.9" rx="3.9" ry="5.4"/>
	</g>
	<path id="XMLID_15_" class="st1" d="M58,96.8c0,0,12.1-9.8,35.4,0l-3.5-17l-18.7-2l-11.3,7.2L58,96.8z"/>
</g>
</svg>
