<?xml version="1.0" encoding="utf-8"?>
<!-- Generator: Adobe Illustrator 23.0.2, SVG Export Plug-In . SVG Version: 6.00 Build 0)  -->
<svg version="1.1" id="Layer_1" xmlns="http://www.w3.org/2000/svg" xmlns:xlink="http://www.w3.org/1999/xlink" x="0px" y="0px"
	 viewBox="0 0 562 436" style="enable-background:new 0 0 562 436;" xml:space="preserve">
<style type="text/css">
	.st0{fill:#666666;}
</style>
<g>
	<path class="st0" d="M545.06,218l-51.31-49.93l-50.84-49.62c-16.86-16.52-33.68-32.99-50.4-49.52l-25.09-24.77l-24.99-24.84
		l5.2-2.16l0.09,49.41c-0.04,16.47,0.01,32.94-0.1,49.41l0,0.03c-0.01,1.67-1.37,3.02-3.04,3.01c-27.33-0.09-54.67-0.4-82-0.66
		l-82-0.82l-41-0.31c-13.67-0.1-27.33-0.13-41-0.15l-20.5-0.04l-20.5,0.03l-41,0.11l1.19-1.19l0.12,25.62l0.2,25.62l0.41,51.25
		l0.9,102.5l-2.82-2.82l82-0.41l82-0.29c27.33-0.08,54.67-0.24,82-0.21c27.33-0.01,54.67-0.05,82,0.07l0.03,0
		c2.02,0.01,3.65,1.65,3.64,3.66l-0.14,48.91l-0.24,48.91l-5.6-2.32c16.67-16.52,33.4-33,50.19-49.47l50.53-49.45L545.06,218z
		 M545.76,218l-98.74,101.24c-16.57,16.97-33.16,33.99-49.88,50.96c-16.69,16.99-33.43,33.99-50.22,50.94
		c-1.27,1.28-3.35,1.29-4.63,0.02c-0.64-0.63-0.96-1.47-0.97-2.3l0-0.04l-0.24-48.91L340.93,321l3.66,3.66
		c-27.33,0.12-54.67,0.08-82,0.07c-27.33,0.03-54.67-0.14-82-0.21l-82-0.29l-82-0.41l-0.04,0c-1.54-0.01-2.79-1.27-2.78-2.81l0-0.01
		l0.9-102.5l0.41-51.25l0.2-25.62L15.4,116l0-0.01c0-0.65,0.53-1.18,1.19-1.18l41,0.11l20.5,0.03l20.5-0.04
		c13.67-0.02,27.33-0.05,41-0.15l41-0.31l82-0.82c27.33-0.26,54.67-0.57,82-0.66l-3.04,3.04c-0.12-16.47-0.06-32.94-0.1-49.41
		l0.09-49.41l0-0.01c0-1.68,1.37-3.04,3.05-3.04c0.84,0,1.6,0.35,2.15,0.9l25.22,25.37l25.12,25.44
		c16.76,16.94,33.4,33.94,50.01,50.89l49.57,50.79L545.76,218z"/>
</g>
</svg>
